<svg width="315" height="59" viewBox="0 0 315 59" fill="none" xmlns="http://www.w3.org/2000/svg">
<path d="M48.8731 24.0014C48.8731 27.3917 48.2813 30.546 47.0977 33.4642C45.9356 36.3825 44.2893 38.9252 42.1587 41.0924C40.0282 43.2382 37.4565 44.9226 34.4436 46.1457C31.4523 47.3688 28.1273 47.9803 24.4689 47.9803C20.8104 47.9803 17.4747 47.3688 14.4618 46.1457C11.4489 44.9226 8.86646 43.2382 6.71441 41.0924C4.58387 38.9252 2.92679 36.3825 1.74316 33.4642C0.581055 30.546 0 27.3917 0 24.0014C0 20.6111 0.581055 17.4568 1.74316 14.5386C2.92679 11.6204 4.58387 9.08835 6.71441 6.94259C8.86646 4.79682 11.4489 3.1124 14.4618 1.88932C17.4747 0.666231 20.8104 0.0546875 24.4689 0.0546875C28.1273 0.0546875 31.4523 0.676958 34.4436 1.9215C37.4565 3.14459 40.0282 4.82901 42.1587 6.97478C44.2893 9.12054 45.9356 11.6525 47.0977 14.5708C48.2813 17.489 48.8731 20.6326 48.8731 24.0014ZM37.704 24.0014C37.704 21.684 37.4027 19.6026 36.8001 17.7572C36.1975 15.8904 35.326 14.3133 34.1854 13.0258C33.0663 11.7384 31.689 10.7513 30.0534 10.0647C28.4179 9.37803 26.5563 9.03471 24.4689 9.03471C22.3598 9.03471 20.4768 9.37803 18.8197 10.0647C17.1842 10.7513 15.7961 11.7384 14.6555 13.0258C13.5364 14.3133 12.6756 15.8904 12.073 17.7572C11.4704 19.6026 11.1692 21.684 11.1692 24.0014C11.1692 26.3403 11.4704 28.4431 12.073 30.31C12.6756 32.1553 13.5364 33.7217 14.6555 35.0092C15.7961 36.2966 17.1842 37.2837 18.8197 37.9703C20.4768 38.6355 22.3598 38.9681 24.4689 38.9681C26.5563 38.9681 28.4179 38.6355 30.0534 37.9703C31.689 37.2837 33.0663 36.2966 34.1854 35.0092C35.326 33.7217 36.1975 32.1553 36.8001 30.31C37.4027 28.4431 37.704 26.3403 37.704 24.0014Z" fill="#07101C"/>
<path d="M99.4183 47.4653H89.4113V21.2334H79.0814V47.4653H69.0744V14.088H99.4183V47.4653Z" fill="#07101C"/>
<path d="M116.217 38.3888C116.97 39.2042 117.788 39.7835 118.67 40.1268C119.553 40.4702 120.478 40.6418 121.446 40.6418C122.372 40.6418 123.222 40.4594 123.997 40.0946C124.771 39.7299 125.439 39.1505 125.998 38.3566C126.579 37.5412 127.031 36.4898 127.354 35.2023C127.677 33.9148 127.838 32.3484 127.838 30.5031C127.838 28.7436 127.709 27.263 127.451 26.0613C127.192 24.8597 126.827 23.8941 126.353 23.1646C125.901 22.4136 125.352 21.8771 124.707 21.5552C124.061 21.2334 123.34 21.0724 122.544 21.0724C121.081 21.0724 119.875 21.3407 118.929 21.8771C117.982 22.4135 117.078 23.1968 116.217 24.2267V38.3888ZM115.604 18.2078C116.916 16.8131 118.401 15.6758 120.058 14.7961C121.737 13.8949 123.728 13.4443 126.03 13.4443C127.773 13.4443 129.388 13.8305 130.872 14.603C132.357 15.3754 133.638 16.4912 134.714 17.9504C135.79 19.4095 136.629 21.2012 137.232 23.3255C137.856 25.4283 138.168 27.8209 138.168 30.5031C138.168 33.0136 137.813 35.331 137.103 37.4554C136.414 39.5797 135.435 41.425 134.165 42.9914C132.917 44.5578 131.41 45.7809 129.646 46.6607C127.903 47.5404 125.966 47.9803 123.835 47.9803C122.092 47.9803 120.629 47.7336 119.445 47.24C118.261 46.7465 117.185 46.0813 116.217 45.2445V58.0547H106.21V14.088H112.408C113.656 14.088 114.474 14.6459 114.861 15.7617L115.604 18.2078Z" fill="#07101C"/>
<path d="M158.713 13.573C161.252 13.573 163.565 13.97 165.653 14.7639C167.74 15.5578 169.527 16.6951 171.012 18.1757C172.518 19.6562 173.68 21.4587 174.498 23.583C175.337 25.6858 175.757 28.0569 175.757 30.6962C175.757 33.3569 175.337 35.7602 174.498 37.906C173.68 40.0303 172.518 41.8434 171.012 43.3455C169.527 44.8261 167.74 45.974 165.653 46.7894C163.565 47.5834 161.252 47.9803 158.713 47.9803C156.152 47.9803 153.817 47.5834 151.708 46.7894C149.62 45.974 147.812 44.8261 146.285 43.3455C144.778 41.8434 143.605 40.0303 142.766 37.906C141.948 35.7602 141.539 33.3569 141.539 30.6962C141.539 28.0569 141.948 25.6858 142.766 23.583C143.605 21.4587 144.778 19.6562 146.285 18.1757C147.812 16.6951 149.62 15.5578 151.708 14.7639C153.817 13.97 156.152 13.573 158.713 13.573ZM158.713 40.5774C161.015 40.5774 162.705 39.7728 163.781 38.1635C164.878 36.5327 165.427 34.065 165.427 30.7606C165.427 27.4561 164.878 24.9992 163.781 23.3899C162.705 21.7805 161.015 20.9759 158.713 20.9759C156.345 20.9759 154.613 21.7805 153.515 23.3899C152.418 24.9992 151.869 27.4561 151.869 30.7606C151.869 34.065 152.418 36.5327 153.515 38.1635C154.613 39.7728 156.345 40.5774 158.713 40.5774Z" fill="#07101C"/>
<path d="M201.617 26.7694C201.617 25.9755 201.51 25.203 201.295 24.452C201.101 23.701 200.767 23.0358 200.294 22.4565C199.842 21.8556 199.239 21.3729 198.486 21.0081C197.733 20.6433 196.818 20.4609 195.742 20.4609C193.848 20.4609 192.364 21.0081 191.287 22.1024C190.211 23.1753 189.501 24.731 189.157 26.7694H201.617ZM189.028 32.563C189.351 35.3525 190.201 37.3803 191.578 38.6463C192.955 39.8908 194.731 40.5131 196.904 40.5131C198.066 40.5131 199.067 40.3736 199.906 40.0946C200.746 39.8157 201.488 39.5046 202.134 39.1612C202.801 38.8179 203.404 38.5068 203.942 38.2278C204.501 37.9489 205.082 37.8094 205.685 37.8094C206.481 37.8094 207.084 38.0991 207.492 38.6784L210.398 42.2511C209.365 43.4313 208.246 44.3969 207.041 45.1479C205.857 45.8775 204.63 46.4568 203.361 46.886C202.112 47.2937 200.853 47.5726 199.584 47.7228C198.335 47.8945 197.141 47.9803 196 47.9803C193.655 47.9803 191.449 47.6048 189.383 46.8538C187.338 46.0813 185.542 44.9441 183.992 43.442C182.464 41.94 181.248 40.0732 180.344 37.8416C179.462 35.61 179.021 33.0136 179.021 30.0525C179.021 27.8209 179.397 25.7073 180.151 23.7117C180.925 21.7162 182.023 19.9674 183.443 18.4653C184.885 16.9633 186.618 15.7724 188.64 14.8926C190.685 14.0129 192.988 13.573 195.549 13.573C197.765 13.573 199.788 13.9163 201.617 14.603C203.468 15.2896 205.05 16.2874 206.363 17.5963C207.697 18.9052 208.73 20.5145 209.462 22.4243C210.215 24.3125 210.591 26.4583 210.591 28.8616C210.591 29.6126 210.559 30.2241 210.495 30.6962C210.43 31.1683 210.312 31.5438 210.139 31.8227C209.967 32.1017 209.731 32.2948 209.429 32.4021C209.15 32.5094 208.784 32.563 208.332 32.563H189.028Z" fill="#07101C"/>
<path d="M235.29 16.5985C235.785 15.8475 236.442 15.2467 237.259 14.7961C238.099 14.324 238.97 14.088 239.874 14.088H247.783L240.746 26.2223C240.208 27.1235 239.659 27.8531 239.099 28.411C238.54 28.9689 237.862 29.398 237.066 29.6984C238.163 30.0632 239.056 30.5782 239.745 31.2434C240.434 31.9086 241.047 32.7454 241.585 33.7539L248.59 47.4653H241.682C240.799 47.4653 240.025 47.401 239.358 47.2722C238.712 47.122 238.131 46.9074 237.614 46.6285C237.098 46.3495 236.646 46.0062 236.259 45.5985C235.871 45.1908 235.516 44.7188 235.193 44.1823L231.643 35.7817C231.32 35.0306 230.846 34.4835 230.222 34.1401C229.62 33.7754 228.92 33.593 228.124 33.593H225.606V47.4653H215.599V14.088H225.606V27.3166H227.672C228.576 27.3166 229.243 27.1771 229.673 26.8982C230.125 26.5978 230.523 26.1043 230.868 25.4176L235.29 16.5985Z" fill="#07101C"/>
<path d="M281.767 21.2334H270.63V47.4653H260.623V21.2334H249.486V14.088H281.767V21.2334Z" fill="#07101C"/>
<path d="M306.026 26.7694C306.026 25.9755 305.918 25.203 305.703 24.452C305.509 23.701 305.176 23.0358 304.702 22.4565C304.25 21.8556 303.648 21.3729 302.894 21.0081C302.141 20.6433 301.226 20.4609 300.15 20.4609C298.257 20.4609 296.772 21.0081 295.696 22.1024C294.62 23.1753 293.91 24.731 293.565 26.7694H306.026ZM293.436 32.563C293.759 35.3525 294.609 37.3803 295.986 38.6463C297.364 39.8908 299.139 40.5131 301.313 40.5131C302.475 40.5131 303.475 40.3736 304.315 40.0946C305.154 39.8157 305.896 39.5046 306.542 39.1612C307.209 38.8179 307.812 38.5068 308.35 38.2278C308.909 37.9489 309.49 37.8094 310.093 37.8094C310.889 37.8094 311.492 38.0991 311.901 38.6784L314.806 42.2511C313.773 43.4313 312.654 44.3969 311.449 45.1479C310.265 45.8775 309.038 46.4568 307.769 46.886C306.521 47.2937 305.262 47.5726 303.992 47.7228C302.744 47.8945 301.549 47.9803 300.409 47.9803C298.063 47.9803 295.857 47.6048 293.791 46.8538C291.747 46.0813 289.95 44.9441 288.4 43.442C286.872 41.94 285.656 40.0732 284.753 37.8416C283.87 35.61 283.429 33.0136 283.429 30.0525C283.429 27.8209 283.806 25.7073 284.559 23.7117C285.334 21.7162 286.431 19.9674 287.851 18.4653C289.293 16.9633 291.026 15.7724 293.049 14.8926C295.093 14.0129 297.396 13.573 299.957 13.573C302.173 13.573 304.196 13.9163 306.026 14.603C307.876 15.2896 309.458 16.2874 310.771 17.5963C312.105 18.9052 313.138 20.5145 313.87 22.4243C314.623 24.3125 315 26.4583 315 28.8616C315 29.6126 314.967 30.2241 314.903 30.6962C314.838 31.1683 314.72 31.5438 314.548 31.8227C314.376 32.1017 314.139 32.2948 313.838 32.4021C313.558 32.5094 313.192 32.563 312.74 32.563H293.436Z" fill="#07101C"/>
<path d="M269.317 25.5786H288.686V33.3034H269.317V25.5786Z" fill="#07101C"/>
<path d="M91.1279 39.7402H115.661V47.465H91.1279V39.7402Z" fill="#07101C"/>
</svg>