<svg width="40" height="35" viewBox="0 0 40 35" fill="none" xmlns="http://www.w3.org/2000/svg">
  <path fill-rule="evenodd" clip-rule="evenodd" d="M2 5H10.9649L13.9553 0H25.9169L28.9073 5H37.8722H39.8722V7V33V35H37.8722H2H0V33V7V5H2ZM12.6813 6.02657L15.0895 2H24.7827L27.1909 6.02657L27.7731 7H28.9073H37.8722V33H2V7H10.9649H12.0991L12.6813 6.02657ZM25.9106 19C25.9106 22.3197 23.2297 25 19.9361 25C16.6426 25 13.9617 22.3197 13.9617 19C13.9617 15.6803 16.6426 13 19.9361 13C23.2297 13 25.9106 15.6803 25.9106 19ZM27.9106 19C27.9106 23.4183 24.3403 27 19.9361 27C15.532 27 11.9617 23.4183 11.9617 19C11.9617 14.5817 15.532 11 19.9361 11C24.3403 11 27.9106 14.5817 27.9106 19Z" fill="#8995AF" fill-opacity="0.35"/>
</svg>
