<svg width="16" height="16" viewBox="0 0 16 16" fill="none" xmlns="http://www.w3.org/2000/svg">
  <circle cx="8" cy="8" r="6.5" stroke="#EF4D37"/>
  <path d="M8.47546 4.11853V7.26453C8.47546 7.42953 8.47179 7.59086 8.46446 7.74853C8.45712 7.9062 8.44795 8.0657 8.43695 8.22703C8.42596 8.3847 8.41129 8.54786 8.39295 8.71653C8.37829 8.88153 8.35996 9.05936 8.33795 9.25003H7.67796C7.65596 9.05936 7.63579 8.88153 7.61746 8.71653C7.60279 8.54786 7.58996 8.3847 7.57896 8.22703C7.56796 8.0657 7.55879 7.9062 7.55146 7.74853C7.54412 7.59086 7.54045 7.42953 7.54045 7.26453V4.11853H8.47546ZM7.30396 11.395C7.30396 11.2997 7.32046 11.2099 7.35346 11.1255C7.39012 11.0412 7.43962 10.9679 7.50196 10.9055C7.56429 10.8432 7.63579 10.7937 7.71645 10.757C7.80079 10.7204 7.89246 10.702 7.99146 10.702C8.08679 10.702 8.17479 10.7204 8.25546 10.757C8.33979 10.7937 8.41312 10.8432 8.47546 10.9055C8.53779 10.9679 8.58729 11.0412 8.62396 11.1255C8.66062 11.2099 8.67896 11.2997 8.67896 11.395C8.67896 11.494 8.66062 11.5857 8.62396 11.67C8.58729 11.7507 8.53779 11.8222 8.47546 11.8845C8.41312 11.9469 8.33979 11.9945 8.25546 12.0275C8.17479 12.0642 8.08679 12.0825 7.99146 12.0825C7.89246 12.0825 7.80079 12.0642 7.71645 12.0275C7.63579 11.9945 7.56429 11.9469 7.50196 11.8845C7.43962 11.8222 7.39012 11.7507 7.35346 11.67C7.32046 11.5857 7.30396 11.494 7.30396 11.395Z" fill="#EF4D37"/>
</svg>
