<svg width="90" height="90" viewBox="0 0 90 90" fill="none" xmlns="http://www.w3.org/2000/svg">
<rect width="90" height="90" rx="45" fill="white"/>
<rect x="1" y="1" width="88" height="88" rx="44" stroke="#8995AF" stroke-opacity="0.2" stroke-width="2"/>
<g clip-path="url(#clip0)">
<path d="M64.5172 36.4844C63.9999 36.4844 63.5801 36.9042 63.5801 37.4215C63.5801 37.9388 63.9999 38.3586 64.5172 38.3586C65.0355 38.3586 65.4543 37.9388 65.4543 37.4215C65.4543 36.9042 65.0355 36.4844 64.5172 36.4844Z" fill="#C9A15D"/>
<path d="M25.483 36.4844C24.9648 36.4844 24.5459 36.9042 24.5459 37.4215C24.5459 37.9388 24.9648 38.3586 25.483 38.3586C26.0003 38.3586 26.4202 37.9388 26.4202 37.4215C26.4202 36.9042 26.0003 36.4844 25.483 36.4844Z" fill="#C9A15D"/>
<path d="M68.9455 56.7567C68.5016 52.5852 64.8128 51.6398 64.6558 51.6015C63.8176 51.3973 63.1712 52.344 63.6668 53.0503C64.4545 54.1728 64.1106 55.5004 64.109 55.5069C64.1021 55.5311 64.0962 55.5557 64.0913 55.5803C63.7667 57.2038 59.3672 57.842 56.4402 54.7421C53.8004 51.9455 51.1745 51.6534 51.0671 51.6426C48.218 51.348 46.059 52.6882 44.9917 53.5509C43.9245 52.6922 41.7632 51.3502 38.9359 51.6423C38.8254 51.6533 36.1998 51.9454 33.559 54.742C31.6166 56.7994 28.9724 57.2309 27.3373 56.7613C26.9569 56.652 26.0562 56.3182 25.9086 55.5803C25.7285 54.6733 25.7992 53.8104 26.3329 53.0507C26.5572 52.7313 26.56 52.3063 26.34 51.9838C26.12 51.6613 25.7226 51.5093 25.344 51.6015C25.187 51.6397 21.4994 52.5852 21.0543 56.7565C20.484 60.7115 24.4238 65.6618 31.8945 66.3855C36.9465 66.8746 42.3254 65.1615 45 60.7909C47.6664 65.142 53.0145 66.8804 58.1079 66.3841C65.5671 65.6569 69.5174 60.7111 68.9455 56.7567ZM57.9259 64.5187C53.6253 64.9377 47.8872 63.5718 45.8736 58.341C45.7345 57.9792 45.3867 57.7405 44.999 57.7405C44.9988 57.7405 44.9985 57.7405 44.9983 57.7405C44.6103 57.7408 44.2628 57.98 44.1238 58.3422C42.12 63.5693 36.3815 64.9369 32.0752 64.52C28.0161 64.1269 23.6154 61.9827 22.9126 58.0779C22.7839 56.8262 23.0798 55.5329 23.9445 54.5845C23.8698 56.6208 24.798 57.9822 26.8197 58.5629C29.0554 59.2051 32.4277 58.6705 34.9217 56.0288C37.0519 53.773 39.0464 53.5163 39.1255 53.507C41.9569 53.2148 43.941 55.0759 44.3098 55.4521C44.7172 55.8672 45.3141 55.8217 45.6628 55.4658L45.6737 55.4546C46.0401 55.0774 48.0125 53.2115 50.8694 53.5066C50.9533 53.5164 52.9477 53.773 55.077 56.0289C58.9511 60.1314 65.2144 59.3473 65.923 55.9767C65.9628 55.8202 66.0806 55.2883 66.0545 54.5839C66.5457 55.1221 66.9713 55.8902 67.0833 56.9719C67.0852 56.9908 67.0868 57.0038 67.0899 57.0226C67.5074 59.7641 64.4573 63.8819 57.9259 64.5187Z" fill="#C9A15D"/>
<path d="M68.8671 36.2647C68.0021 31.3438 63.8751 29.5342 58.8789 29.5342C56.9456 29.5342 55.2185 29.668 53.7394 29.932C53.7031 29.9277 53.6664 29.9249 53.629 29.9249H36.3722C36.3182 29.9249 36.2656 29.9305 36.2142 29.9393C34.6851 29.674 32.8593 29.5342 30.9075 29.5342C24.7404 29.5342 21.8043 32.4409 21.132 36.265C20.2579 41.2456 23.8447 49.6054 31.2251 49.6054C34.5852 49.6054 38.4557 47.7338 40.6374 45.0543C42.6309 42.6074 43.7039 39.6971 43.5604 37.1771C43.9091 36.8196 44.3961 36.4852 44.9996 36.4852C45.6031 36.4852 46.0902 36.8196 46.4388 37.1771C46.2953 39.697 47.3682 42.6074 49.3616 45.0541C51.6126 47.8189 55.2237 49.6054 58.5613 49.6054C66.5235 49.6054 69.6801 40.8969 68.8671 36.2647ZM39.1839 43.8707C37.0244 46.5232 33.5445 47.7312 31.225 47.7312C25.0468 47.7311 22.3102 40.3953 22.978 36.5894C23.6613 32.702 26.9757 31.4086 30.9074 31.4086C33.0763 31.4086 36.7245 31.6186 38.6549 32.5978C40.2749 33.4188 41.2075 34.6606 41.5897 36.5048C42.0954 38.9624 40.8043 41.8818 39.1839 43.8707ZM44.9995 34.6108C44.3567 34.6108 43.731 34.7901 43.1556 35.1286C42.7025 33.771 41.9363 32.6479 40.8646 31.7899H49.1344C48.062 32.6481 47.2957 33.7711 46.8432 35.1284C46.2678 34.7901 45.6422 34.6108 44.9995 34.6108ZM58.5611 47.7312C55.8079 47.7312 52.6949 46.1798 50.8148 43.8705C49.1945 41.8819 47.9047 38.9558 48.4091 36.5053C49.0061 33.6177 50.9436 32.3797 53.8147 31.8245C55.2177 31.5524 56.9688 31.4087 58.8788 31.4087C62.9193 31.4085 66.3245 32.6268 67.021 36.5891C67.6472 40.1579 65.2214 47.7312 58.5611 47.7312Z" fill="#C9A15D"/>
<path d="M29.7572 43.6532C28.7834 43.2192 27.8754 42.1402 27.2659 40.6929C27.0651 40.2158 26.5155 39.9919 26.0385 40.1929C25.5615 40.3937 25.3377 40.9432 25.5386 41.4202C26.3424 43.3294 27.5698 44.7303 28.9946 45.3651C29.4656 45.575 30.0205 45.365 30.232 44.8906C30.4424 44.4178 30.2299 43.8637 29.7572 43.6532Z" fill="#C9A15D"/>
<path d="M63.9609 40.1926C63.4842 39.9921 62.9344 40.2161 62.7337 40.6933C62.1253 42.1404 61.2183 43.2193 60.2452 43.6531C59.7725 43.8639 59.5601 44.418 59.7709 44.8907C59.9265 45.2395 60.2688 45.4465 60.6275 45.4465C60.7549 45.4465 60.8846 45.4203 61.0086 45.365C62.4327 44.73 63.659 43.3289 64.4618 41.4197C64.6624 40.9426 64.438 40.3932 63.9609 40.1926Z" fill="#C9A15D"/>
</g>
<defs>
<clipPath id="clip0">
<rect width="48" height="48" fill="white" transform="translate(21 24)"/>
</clipPath>
</defs>
</svg>
