<svg width="90" height="90" viewBox="0 0 90 90" fill="none" xmlns="http://www.w3.org/2000/svg">
<rect width="90" height="90" rx="45" fill="white"/>
<rect x="1" y="1" width="88" height="88" rx="44" stroke="#8995AF" stroke-opacity="0.2" stroke-width="2"/>
<path d="M65.9678 23.791C64.1068 21.9912 61.6562 21 59.0674 21C56.4787 21 54.0279 21.9913 52.1668 23.7911L52.042 23.912C49.0126 26.8417 48.1635 31.3815 49.9295 35.2085L53.0567 41.9856V64.8121C53.0567 67.1214 54.9351 69 57.244 69H60.4929C62.8018 69 64.6802 67.1214 64.6802 64.8121V41.9955L67.9715 35.3158C69.8849 31.4323 69.0798 26.8008 65.9678 23.791ZM62.8054 64.812C62.8054 66.0873 61.7679 67.125 60.4928 67.125H57.2439C55.9688 67.125 54.9313 66.0874 54.9313 64.812V50.5312H59.0577V56.5737C59.0577 57.0914 59.4773 57.5113 59.9951 57.5113C60.5128 57.5113 60.9325 57.0915 60.9325 56.5737V50.5312H62.8053V64.812H62.8054ZM54.9313 48.6562V42.6945H56.3533C56.3547 42.6945 56.356 42.6947 56.3574 42.6947C56.3589 42.6947 56.3604 42.6945 56.3618 42.6945H61.6479C61.6494 42.6945 61.6509 42.6947 61.6523 42.6947C61.6537 42.6947 61.6551 42.6945 61.6564 42.6945H62.8053V48.6562H54.9313ZM66.2897 34.4872L63.1696 40.8196H62.7578L63.5133 36.2862C63.5984 35.7756 63.2534 35.2924 62.7427 35.2073C62.2322 35.1223 61.7491 35.4672 61.664 35.978L60.8572 40.8196H59.8058V36.132C59.8058 35.6144 59.3861 35.1945 58.8683 35.1945C58.3507 35.1945 57.9309 35.6143 57.9309 36.132V40.8196H57.1525L56.3456 35.9779C56.2606 35.4674 55.7775 35.1223 55.2669 35.2073C54.7562 35.2924 54.4112 35.7755 54.4963 36.2863L55.2519 40.8196H54.5832L51.6315 34.4229C50.1992 31.3187 50.8878 27.6364 53.3453 25.2598L53.4701 25.1389C56.6088 22.1037 61.5259 22.1037 64.6644 25.1389C67.1887 27.5802 67.8419 31.337 66.2897 34.4872Z" fill="#C9A15D"/>
<path d="M33.5609 51.0095V46.875C33.5609 46.1079 33.0974 45.4477 32.4361 45.1577V39.3648C32.4361 38.3262 31.8675 37.3764 30.9521 36.8858L27.9525 35.2783C27.0727 34.807 26.0363 34.8313 25.1798 35.3443C24.3234 35.8569 23.8122 36.759 23.8122 37.7573V45.1576C23.1509 45.4476 22.6874 46.1078 22.6874 46.875V51.0094C21.7413 51.1038 21 51.9043 21 52.875V66.1875C21 67.7383 22.2615 69 23.8121 69H32.436C33.9866 69 35.2481 67.7383 35.2481 66.1875V52.875C35.2482 51.9043 34.5069 51.1039 33.5609 51.0095ZM25.6869 37.7573C25.6869 37.2777 26.0058 37.035 26.1427 36.9529C26.2798 36.8708 26.6443 36.7045 27.0669 36.9309L30.0665 38.5384C30.3717 38.7019 30.5612 39.0186 30.5612 39.3647V44.9999H25.6869V37.7573ZM24.562 46.875H24.7495H31.4987H31.6862V51H24.5621V46.875H24.562ZM33.3734 66.1876C33.3734 66.7045 32.9529 67.1251 32.436 67.1251H30.7487V60.0001C30.7487 59.4825 30.329 59.0626 29.8113 59.0626C29.2936 59.0626 28.8739 59.4824 28.8739 60.0001V67.1251H23.8121C23.2953 67.1251 22.8747 66.7046 22.8747 66.1876V52.8751H33.3734V66.1876Z" fill="#C9A15D"/>
<path d="M48.559 44.0626H44.2471V34.8751H45.8418C46.3595 34.8751 46.7792 34.4553 46.7792 33.9375C46.7792 33.4198 46.3596 33 45.8418 33H44.2471V31.8751H45.8418C46.3595 31.8751 46.7792 31.4553 46.7792 30.9375C46.7792 30.4198 46.3596 30 45.8418 30H44.2471V28.8751H45.8418C46.3595 28.8751 46.7792 28.4553 46.7792 27.9375C46.7792 27.4198 46.3596 27 45.8418 27H44.2471V25.8751H45.8418C46.3595 25.8751 46.7792 25.4553 46.7792 24.9375C46.7792 24.4198 46.3596 24 45.8418 24H44.2471V22.8751H45.8418C46.3595 22.8751 46.7792 22.4553 46.7792 21.9375C46.7792 21.4198 46.3596 21 45.8418 21H40.7778C40.2601 21 39.8404 21.4198 39.8404 21.9375C39.8404 22.4553 40.26 22.8751 40.7778 22.8751H42.3724V24H40.7777C40.26 24 39.8403 24.4198 39.8403 24.9375C39.8403 25.4553 40.2599 25.8751 40.7777 25.8751H42.3724V27H40.7777C40.26 27 39.8403 27.4198 39.8403 27.9375C39.8403 28.4553 40.2599 28.8751 40.7777 28.8751H42.3724V30H40.7777C40.26 30 39.8403 30.4198 39.8403 30.9375C39.8403 31.4553 40.2599 31.8751 40.7777 31.8751H42.3724V33H40.7777C40.26 33 39.8403 33.4198 39.8403 33.9375C39.8403 34.4553 40.2599 34.8751 40.7777 34.8751H42.3724V44.0626H38.0605C37.5428 44.0626 37.123 44.4824 37.123 45.0001V55.4723C37.123 60.0836 38.3862 64.6053 40.7761 68.5485C40.9461 68.8289 41.2499 69 41.5778 69H45.0417C45.3696 69 45.6735 68.8288 45.8434 68.5485C48.2332 64.6052 49.4964 60.0835 49.4964 55.4723V45C49.4963 44.4823 49.0767 44.0626 48.559 44.0626ZM47.6216 55.4722C47.6216 59.5656 46.546 63.5832 44.5068 67.125H42.1124C40.0733 63.5831 38.9977 59.5656 38.9977 55.4722V50.0625H44.6464C45.1641 50.0625 45.5838 49.6428 45.5838 49.125C45.5838 48.6073 45.1642 48.1875 44.6464 48.1875H38.9977V45.9375H47.6215V55.4722H47.6216Z" fill="#C9A15D"/>
<path d="M60.6577 59.1917C60.4834 59.0173 60.2416 58.917 59.995 58.917C59.7485 58.917 59.5067 59.0172 59.3323 59.1917C59.1579 59.3661 59.0576 59.6078 59.0576 59.8545C59.0576 60.1011 59.1579 60.3429 59.3323 60.5172C59.5067 60.6926 59.7485 60.792 59.995 60.792C60.2416 60.792 60.4834 60.6926 60.6577 60.5172C60.8321 60.3429 60.9324 60.102 60.9324 59.8545C60.9324 59.6078 60.8321 59.3661 60.6577 59.1917Z" fill="#C9A15D"/>
</svg>
