<svg width="44" height="44" viewBox="0 0 44 44" fill="none" xmlns="http://www.w3.org/2000/svg">
  <path fill-rule="evenodd" clip-rule="evenodd" d="M38.4161 20.9361L38.9967 20.5033L38.9965 20.5L44 16.6862C41.5499 7.10311 32.6241 0 21.9882 0C12.6544 0 4.63767 5.47031 1.15872 13.2864L2.77037 14.6094C2.77358 14.6016 2.77679 14.5938 2.78001 14.586L14.2198 23.7795L14.82 24.2619L15.4397 23.8048L26.4383 15.6932L37.3799 21.033L37.9275 21.3002L38.4161 20.9361ZM1.7106 25.9303L0 27.4054C2.48338 36.9421 11.3862 44 21.9882 44C31.2826 44 39.271 38.5758 42.7734 30.8124L40.5391 28.8857L29.7567 20.2205L29.1564 19.7381L28.5367 20.1952L17.5382 28.3068L6.59654 22.967L6.04892 22.6998L5.56035 23.0639L1.71115 25.9329C1.71096 25.932 1.71078 25.9312 1.7106 25.9303ZM40.313 31.2699L29.104 22.2619L18.2376 30.276L17.75 30.6356L17.2055 30.3699L6.267 25.0317L2.26391 28.0153C4.89776 36.0947 12.6967 42 21.9882 42C29.9792 42 36.8662 37.6321 40.313 31.2699ZM37.7094 18.9683L41.7125 15.9847C39.0786 7.90531 31.2797 2 21.9882 2C13.9972 2 7.11021 6.36788 3.66338 12.7301L14.8724 21.7381L25.7388 13.724L26.2264 13.3644L26.7709 13.6301L37.7094 18.9683Z" fill="url(#paint0_linear)"/>
  <defs>
    <linearGradient id="paint0_linear" x1="22" y1="0" x2="22" y2="44" gradientUnits="userSpaceOnUse">
      <stop stop-color="#C9A15D"/>
      <stop offset="1" stop-color="#BA9462"/>
    </linearGradient>
  </defs>
</svg>
