<svg width="90" height="90" viewBox="0 0 90 90" fill="none" xmlns="http://www.w3.org/2000/svg">
<rect width="90" height="90" rx="45" fill="white"/>
<rect x="1" y="1" width="88" height="88" rx="44" stroke="#8995AF" stroke-opacity="0.2" stroke-width="2"/>
<path d="M65.1063 34.0471C64.6381 32.0385 63.4157 30.3325 61.6643 29.2433L51.2227 22.7497C51.058 22.6216 50.8881 22.4987 50.7115 22.3827C48.0511 20.6347 44.686 20.5373 41.9292 22.1291L31.8417 27.9529C29.1414 29.5119 27.2098 32.0292 26.4028 35.041C25.5958 38.0528 26.01 41.1985 27.5689 43.8988L29.1602 46.655C29.1709 46.6735 29.1828 46.6909 29.1946 46.7084V48.3995C29.1946 58.1526 35.8039 66.6122 45.267 68.972C45.3415 68.9906 45.4177 68.9998 45.4939 68.9998C45.5694 68.9998 45.6448 68.9907 45.7186 68.9725L45.7356 68.9683C55.2027 66.6109 61.8147 58.1504 61.8147 48.3942V43.6229L64.1437 39.8779C65.2327 38.1265 65.5746 36.0558 65.1063 34.0471ZM59.9397 48.3943C59.9398 57.2157 54.0105 64.8748 45.4944 67.0952C36.9894 64.8665 31.0693 57.2121 31.0693 48.3996V46.6353L32.3162 45.9154C32.1936 46.408 32.1275 46.9227 32.1275 47.4527C32.1275 50.9673 34.9869 53.8267 38.5015 53.8267C42.0161 53.8267 44.8755 50.9673 44.8755 47.4527C44.8755 43.9381 42.0161 41.0787 38.5015 41.0787C36.9937 41.0787 35.6074 41.6061 34.5148 42.4847C34.4973 42.4933 34.4798 42.5014 34.4628 42.5113L30.315 44.906L29.1923 42.9615C27.8836 40.6949 27.536 38.0542 28.2135 35.5262C28.891 32.9981 30.5122 30.8851 32.7789 29.5765L42.8664 23.7525C45.0057 22.5172 47.6174 22.5928 49.682 23.9495C51.3885 25.0708 52.372 26.959 52.3132 29.0001C52.2543 31.0412 51.1632 32.8693 49.3948 33.8904L47.59 34.9323C47.5882 34.9334 47.5864 34.9345 47.5845 34.9355L44.9842 36.4368C44.5359 36.6958 44.3823 37.269 44.6412 37.7173C44.9002 38.1655 45.4734 38.3193 45.9217 38.0603L48.0336 36.8409L59.9397 44.2454V48.3943ZM34.0023 47.4528C34.0023 44.9718 36.0207 42.9535 38.5016 42.9535C40.9825 42.9535 43.0009 44.9719 43.0009 47.4528C43.0009 49.9338 40.9825 51.952 38.5016 51.952C36.0207 51.952 34.0023 49.9338 34.0023 47.4528ZM62.5516 38.8878L60.4107 42.3304L49.8748 35.778L50.3324 35.5138C52.6684 34.1651 54.1095 31.7504 54.1874 29.0542C54.2119 28.2085 54.1006 27.3827 53.8672 26.6018L60.6746 30.8354C63.412 32.5378 64.2541 36.1502 62.5516 38.8878Z" fill="#C9A15D"/>
<path d="M42.9331 38.4222C42.7588 38.2478 42.517 38.1475 42.2704 38.1475C42.0239 38.1475 41.7821 38.2478 41.6077 38.4222C41.4334 38.5965 41.333 38.8383 41.333 39.0849C41.333 39.3315 41.4333 39.5732 41.6077 39.7476C41.7821 39.922 42.0239 40.0223 42.2704 40.0223C42.517 40.0223 42.7588 39.9221 42.9331 39.7476C43.1074 39.5732 43.2078 39.3324 43.2078 39.0849C43.2077 38.8383 43.1074 38.5965 42.9331 38.4222Z" fill="#C9A15D"/>
<path d="M50.9519 59.0866C50.9164 58.6688 50.6508 58.3155 50.257 58.164C49.7919 57.9848 49.3783 57.6873 49.0609 57.303C48.5582 56.6946 47.8172 56.3457 47.028 56.3457C46.4761 56.3457 45.9374 56.5219 45.4926 56.8393C45.048 56.5219 44.5092 56.3457 43.9574 56.3457C43.1682 56.3457 42.4273 56.6946 41.9244 57.303C41.607 57.6871 41.1934 57.9847 40.7362 58.1609C40.7336 58.1619 40.7288 58.1636 40.7263 58.1646C40.3346 58.3155 40.0691 58.6687 40.0334 59.0864C39.9975 59.5062 40.2006 59.9013 40.563 60.1176C40.7026 60.2008 40.9436 60.456 41.1766 60.703C42.0069 61.5829 43.261 62.9117 45.4868 62.9151C45.4879 62.9151 45.4891 62.9151 45.4902 62.9151C45.4921 62.9152 45.4936 62.9152 45.4951 62.9151C45.4962 62.9151 45.4973 62.9151 45.4984 62.9151C47.7241 62.9118 48.9783 61.5828 49.8087 60.7029C50.0417 60.456 50.2826 60.2008 50.4217 60.1178C50.7844 59.9017 50.9877 59.5066 50.9519 59.0866ZM48.4454 59.4165C47.7273 60.1773 46.9137 61.0396 45.4927 61.0405C44.0719 61.0396 43.2582 60.1773 42.5401 59.4165C42.5156 59.3906 42.4913 59.3647 42.4669 59.3391C42.8018 59.0992 43.1059 58.8164 43.3695 58.4973C43.515 58.3213 43.7292 58.2204 43.9574 58.2204C44.1647 58.2204 44.3656 58.3064 44.5088 58.4564L44.8147 58.7767C44.9916 58.9621 45.2365 59.0669 45.4926 59.0669C45.4927 59.0669 45.4927 59.0669 45.4927 59.0669C45.7488 59.0669 45.9938 58.9621 46.1706 58.7768L46.4765 58.4564C46.6197 58.3064 46.8207 58.2204 47.0281 58.2204C47.2563 58.2204 47.4705 58.3213 47.6159 58.4972C47.8795 58.8162 48.1834 59.0992 48.5186 59.339C48.4943 59.3647 48.4699 59.3905 48.4454 59.4165Z" fill="#C9A15D"/>
<path d="M52.4843 41.0781C48.9697 41.0781 46.1104 43.9375 46.1104 47.4521C46.1104 50.9667 48.9697 53.8261 52.4843 53.8261C55.9989 53.8261 58.8583 50.9667 58.8583 47.4521C58.8583 43.9375 55.9989 41.0781 52.4843 41.0781ZM52.4843 51.9514C50.0033 51.9514 47.9851 49.933 47.9851 47.4521C47.9851 44.9711 50.0034 42.9529 52.4843 42.9529C54.9652 42.9529 56.9836 44.9712 56.9836 47.4521C56.9836 49.9331 54.9652 51.9514 52.4843 51.9514Z" fill="#C9A15D"/>
<path d="M52.4832 43.9727C51.9656 43.9727 51.5459 44.3924 51.5459 44.91V45.2063C51.5459 45.7239 51.9656 46.1436 52.4832 46.1436C53.0008 46.1436 53.4205 45.7239 53.4205 45.2063V44.91C53.4205 44.3924 53.0009 43.9727 52.4832 43.9727Z" fill="#C9A15D"/>
<path d="M52.4832 48.7607C51.9656 48.7607 51.5459 49.1805 51.5459 49.6981V49.9944C51.5459 50.512 51.9656 50.9317 52.4832 50.9317C53.0008 50.9317 53.4205 50.512 53.4205 49.9944V49.6981C53.4205 49.1804 53.0009 48.7607 52.4832 48.7607Z" fill="#C9A15D"/>
<path d="M55.0257 46.5146H54.7293C54.2117 46.5146 53.792 46.9344 53.792 47.452C53.792 47.9696 54.2117 48.3893 54.7293 48.3893H55.0257C55.5432 48.3893 55.963 47.9696 55.963 47.452C55.9631 46.9345 55.5432 46.5146 55.0257 46.5146Z" fill="#C9A15D"/>
<path d="M50.2376 46.5146H49.9412C49.4236 46.5146 49.0039 46.9344 49.0039 47.452C49.0039 47.9696 49.4236 48.3893 49.9412 48.3893H50.2376C50.7552 48.3893 51.1749 47.9696 51.1749 47.452C51.175 46.9345 50.7553 46.5146 50.2376 46.5146Z" fill="#C9A15D"/>
<path d="M38.5008 43.9727C37.9832 43.9727 37.5635 44.3924 37.5635 44.91V45.2063C37.5635 45.7239 37.9832 46.1436 38.5008 46.1436C39.0184 46.1436 39.4381 45.7239 39.4381 45.2063V44.91C39.4382 44.3924 39.0184 43.9727 38.5008 43.9727Z" fill="#C9A15D"/>
<path d="M38.5008 48.7607C37.9832 48.7607 37.5635 49.1805 37.5635 49.6981V49.9944C37.5635 50.512 37.9832 50.9317 38.5008 50.9317C39.0184 50.9317 39.4381 50.512 39.4381 49.9944V49.6981C39.4382 49.1805 39.0184 48.7607 38.5008 48.7607Z" fill="#C9A15D"/>
<path d="M41.0432 46.5146H40.7469C40.2293 46.5146 39.8096 46.9344 39.8096 47.452C39.8096 47.9696 40.2293 48.3893 40.7469 48.3893H41.0432C41.5608 48.3893 41.9805 47.9696 41.9805 47.452C41.9805 46.9345 41.5608 46.5146 41.0432 46.5146Z" fill="#C9A15D"/>
<path d="M36.2551 46.5146H35.9588C35.4412 46.5146 35.0215 46.9343 35.0215 47.452C35.0215 47.9696 35.4412 48.3893 35.9588 48.3893H36.2551C36.7727 48.3893 37.1925 47.9696 37.1925 47.452C37.1925 46.9345 36.7727 46.5146 36.2551 46.5146Z" fill="#C9A15D"/>
<path d="M41.0145 28.4151C40.7555 27.9669 40.1823 27.8131 39.734 28.072L32.5958 32.1933C32.1475 32.4522 31.9938 33.0254 32.2527 33.4737C32.4265 33.7745 32.7414 33.9426 33.0655 33.9426C33.2245 33.9426 33.3856 33.902 33.5332 33.8168L40.6714 29.6955C41.1197 29.4366 41.2733 28.8634 41.0145 28.4151Z" fill="#C9A15D"/>
<path d="M43.8149 26.5179C43.6406 26.3434 43.3988 26.2441 43.1523 26.2441C42.9057 26.2441 42.6639 26.3435 42.4895 26.5179C42.3152 26.6932 42.2148 26.935 42.2148 27.1815C42.2148 27.4281 42.3151 27.6699 42.4895 27.8442C42.6639 28.0186 42.9057 28.119 43.1523 28.119C43.3988 28.119 43.6406 28.0186 43.8149 27.8442C43.9893 27.6699 44.0897 27.4281 44.0897 27.1815C44.0897 26.935 43.9893 26.6932 43.8149 26.5179Z" fill="#C9A15D"/>
</svg>
