<svg width="65" height="81" viewBox="0 0 65 81" fill="none" xmlns="http://www.w3.org/2000/svg">
  <path d="M9.39775 78H7.83775V67.76H2.10975V78H0.55775V66.536H9.39775V78ZM17.1614 73.064C17.1614 72.7333 17.1134 72.432 17.0174 72.16C16.9267 71.8827 16.7907 71.6453 16.6094 71.448C16.4334 71.2453 16.2174 71.0907 15.9614 70.984C15.7054 70.872 15.4147 70.816 15.0894 70.816C14.4067 70.816 13.8654 71.016 13.4654 71.416C13.0707 71.8107 12.8254 72.36 12.7294 73.064H17.1614ZM18.3134 76.864C18.1374 77.0773 17.9267 77.264 17.6814 77.424C17.436 77.5787 17.172 77.7067 16.8894 77.808C16.612 77.9093 16.324 77.984 16.0254 78.032C15.7267 78.0853 15.4307 78.112 15.1374 78.112C14.5774 78.112 14.06 78.0187 13.5854 77.832C13.116 77.64 12.708 77.3627 12.3614 77C12.02 76.632 11.7534 76.1787 11.5614 75.64C11.3694 75.1013 11.2734 74.4827 11.2734 73.784C11.2734 73.2187 11.3587 72.6907 11.5294 72.2C11.7054 71.7093 11.956 71.2853 12.2814 70.928C12.6067 70.5653 13.004 70.2827 13.4734 70.08C13.9427 69.872 14.4707 69.768 15.0574 69.768C15.5427 69.768 15.9907 69.8507 16.4014 70.016C16.8174 70.176 17.1747 70.4107 17.4734 70.72C17.7774 71.024 18.0147 71.4027 18.1854 71.856C18.356 72.304 18.4414 72.816 18.4414 73.392C18.4414 73.616 18.4174 73.7653 18.3694 73.84C18.3214 73.9147 18.2307 73.952 18.0974 73.952H12.6814C12.6974 74.464 12.7667 74.9093 12.8894 75.288C13.0174 75.6667 13.1934 75.984 13.4174 76.24C13.6414 76.4907 13.908 76.68 14.2174 76.808C14.5267 76.9307 14.8734 76.992 15.2574 76.992C15.6147 76.992 15.9214 76.952 16.1774 76.872C16.4387 76.7867 16.6627 76.696 16.8494 76.6C17.036 76.504 17.1907 76.416 17.3134 76.336C17.4414 76.2507 17.5507 76.208 17.6414 76.208C17.7587 76.208 17.8494 76.2533 17.9134 76.344L18.3134 76.864ZM21.6225 76.048C21.8838 76.4 22.1692 76.648 22.4785 76.792C22.7878 76.936 23.1345 77.008 23.5185 77.008C24.2758 77.008 24.8572 76.7387 25.2625 76.2C25.6678 75.6613 25.8705 74.8933 25.8705 73.896C25.8705 73.368 25.8225 72.9147 25.7265 72.536C25.6358 72.1573 25.5025 71.848 25.3265 71.608C25.1505 71.3627 24.9345 71.184 24.6785 71.072C24.4225 70.96 24.1318 70.904 23.8065 70.904C23.3425 70.904 22.9345 71.0107 22.5825 71.224C22.2358 71.4373 21.9158 71.7387 21.6225 72.128V76.048ZM21.5505 71.152C21.8918 70.7307 22.2865 70.392 22.7345 70.136C23.1825 69.88 23.6945 69.752 24.2705 69.752C24.7398 69.752 25.1638 69.8427 25.5425 70.024C25.9212 70.2 26.2438 70.464 26.5105 70.816C26.7772 71.1627 26.9825 71.5947 27.1265 72.112C27.2705 72.6293 27.3425 73.224 27.3425 73.896C27.3425 74.4933 27.2625 75.0507 27.1025 75.568C26.9425 76.08 26.7105 76.5253 26.4065 76.904C26.1078 77.2773 25.7398 77.5733 25.3025 77.792C24.8705 78.0053 24.3825 78.112 23.8385 78.112C23.3425 78.112 22.9158 78.0293 22.5585 77.864C22.2065 77.6933 21.8945 77.4587 21.6225 77.16V80.744H20.1905V69.896H21.0465C21.2492 69.896 21.3745 69.9947 21.4225 70.192L21.5505 71.152ZM34.5676 73.064C34.5676 72.7333 34.5196 72.432 34.4236 72.16C34.333 71.8827 34.197 71.6453 34.0156 71.448C33.8396 71.2453 33.6236 71.0907 33.3676 70.984C33.1116 70.872 32.821 70.816 32.4956 70.816C31.813 70.816 31.2716 71.016 30.8716 71.416C30.477 71.8107 30.2316 72.36 30.1356 73.064H34.5676ZM35.7196 76.864C35.5436 77.0773 35.333 77.264 35.0876 77.424C34.8423 77.5787 34.5783 77.7067 34.2956 77.808C34.0183 77.9093 33.7303 77.984 33.4316 78.032C33.133 78.0853 32.837 78.112 32.5436 78.112C31.9836 78.112 31.4663 78.0187 30.9916 77.832C30.5223 77.64 30.1143 77.3627 29.7676 77C29.4263 76.632 29.1596 76.1787 28.9676 75.64C28.7756 75.1013 28.6796 74.4827 28.6796 73.784C28.6796 73.2187 28.765 72.6907 28.9356 72.2C29.1116 71.7093 29.3623 71.2853 29.6876 70.928C30.013 70.5653 30.4103 70.2827 30.8796 70.08C31.349 69.872 31.877 69.768 32.4636 69.768C32.949 69.768 33.397 69.8507 33.8076 70.016C34.2236 70.176 34.581 70.4107 34.8796 70.72C35.1836 71.024 35.421 71.4027 35.5916 71.856C35.7623 72.304 35.8476 72.816 35.8476 73.392C35.8476 73.616 35.8236 73.7653 35.7756 73.84C35.7276 73.9147 35.637 73.952 35.5036 73.952H30.0876C30.1036 74.464 30.173 74.9093 30.2956 75.288C30.4236 75.6667 30.5996 75.984 30.8236 76.24C31.0476 76.4907 31.3143 76.68 31.6236 76.808C31.933 76.9307 32.2796 76.992 32.6636 76.992C33.021 76.992 33.3276 76.952 33.5836 76.872C33.845 76.7867 34.069 76.696 34.2556 76.6C34.4423 76.504 34.597 76.416 34.7196 76.336C34.8476 76.2507 34.957 76.208 35.0476 76.208C35.165 76.208 35.2556 76.2533 35.3196 76.344L35.7196 76.864ZM39.0288 76.048C39.2901 76.4 39.5754 76.648 39.8848 76.792C40.1941 76.936 40.5408 77.008 40.9248 77.008C41.6821 77.008 42.2634 76.7387 42.6688 76.2C43.0741 75.6613 43.2768 74.8933 43.2768 73.896C43.2768 73.368 43.2288 72.9147 43.1328 72.536C43.0421 72.1573 42.9088 71.848 42.7328 71.608C42.5568 71.3627 42.3408 71.184 42.0848 71.072C41.8288 70.96 41.5381 70.904 41.2128 70.904C40.7488 70.904 40.3408 71.0107 39.9888 71.224C39.6421 71.4373 39.3221 71.7387 39.0288 72.128V76.048ZM38.9568 71.152C39.2981 70.7307 39.6928 70.392 40.1408 70.136C40.5888 69.88 41.1008 69.752 41.6768 69.752C42.1461 69.752 42.5701 69.8427 42.9488 70.024C43.3274 70.2 43.6501 70.464 43.9168 70.816C44.1834 71.1627 44.3888 71.5947 44.5328 72.112C44.6768 72.6293 44.7488 73.224 44.7488 73.896C44.7488 74.4933 44.6688 75.0507 44.5087 75.568C44.3488 76.08 44.1168 76.5253 43.8128 76.904C43.5141 77.2773 43.1461 77.5733 42.7088 77.792C42.2768 78.0053 41.7888 78.112 41.2448 78.112C40.7488 78.112 40.3221 78.0293 39.9648 77.864C39.6128 77.6933 39.3008 77.4587 39.0288 77.16V80.744H37.5968V69.896H38.4528C38.6554 69.896 38.7808 69.9947 38.8288 70.192L38.9568 71.152ZM49.6619 76.96C49.9499 76.96 50.1979 76.9253 50.4059 76.856C50.6192 76.7813 50.7952 76.68 50.9339 76.552C51.0725 76.4187 51.1765 76.264 51.2459 76.088C51.3152 75.912 51.3499 75.72 51.3499 75.512C51.3499 75.32 51.3205 75.1413 51.2619 74.976C51.2032 74.8053 51.1045 74.656 50.9659 74.528C50.8325 74.4 50.6565 74.2987 50.4379 74.224C50.2192 74.1493 49.9525 74.112 49.6379 74.112H47.9099V76.96H49.6619ZM49.6379 73.072C50.1979 73.072 50.6672 73.1387 51.0459 73.272C51.4299 73.4053 51.7365 73.584 51.9659 73.808C52.2005 74.032 52.3685 74.2907 52.4699 74.584C52.5712 74.8773 52.6219 75.1813 52.6219 75.496C52.6219 75.8587 52.5579 76.1947 52.4299 76.504C52.3019 76.808 52.1125 77.072 51.8619 77.296C51.6112 77.5147 51.3019 77.688 50.9339 77.816C50.5659 77.9387 50.1419 78 49.6619 78H46.5499V69.896H47.9099V73.072H49.6379ZM55.8299 69.896V78H54.4059V69.896H55.8299ZM61.2088 77C61.7421 77 62.1634 76.8773 62.4728 76.632C62.7821 76.3813 62.9368 76.04 62.9368 75.608C62.9368 75.416 62.9074 75.2427 62.8488 75.088C62.7901 74.928 62.6941 74.7893 62.5608 74.672C62.4274 74.5547 62.2488 74.464 62.0248 74.4C61.8061 74.336 61.5368 74.304 61.2168 74.304H59.4648V77H61.2088ZM59.4648 70.856V73.4H61.0248C61.2594 73.4 61.4754 73.368 61.6727 73.304C61.8754 73.2347 62.0488 73.1413 62.1928 73.024C62.3368 72.9013 62.4488 72.7573 62.5288 72.592C62.6088 72.4213 62.6488 72.2347 62.6488 72.032C62.6488 71.8827 62.6221 71.7387 62.5688 71.6C62.5154 71.456 62.4248 71.3307 62.2968 71.224C62.1688 71.112 62.0008 71.024 61.7928 70.96C61.5848 70.8907 61.3288 70.856 61.0248 70.856H59.4648ZM61.0648 69.896C61.5661 69.896 61.9954 69.9467 62.3528 70.048C62.7101 70.1493 63.0034 70.288 63.2328 70.464C63.4621 70.6347 63.6301 70.8373 63.7368 71.072C63.8434 71.3067 63.8968 71.5573 63.8968 71.824C63.8968 72 63.8728 72.184 63.8248 72.376C63.7768 72.568 63.6914 72.752 63.5688 72.928C63.4514 73.104 63.2888 73.264 63.0808 73.408C62.8781 73.5467 62.6221 73.656 62.3128 73.736C62.9314 73.8427 63.4088 74.0587 63.7448 74.384C64.0808 74.704 64.2488 75.128 64.2488 75.656C64.2488 76.0507 64.1688 76.3947 64.0088 76.688C63.8541 76.976 63.6381 77.2187 63.3608 77.416C63.0888 77.6133 62.7688 77.76 62.4008 77.856C62.0328 77.952 61.6381 78 61.2168 78H58.0968V69.896H61.0648Z" fill="#8995AF"/>
  <path fill-rule="evenodd" clip-rule="evenodd" d="M27.8203 4.07944C27.758 4.12493 27.4916 4.33349 27.4999 5.1631C27.5042 5.58389 27.5767 5.85343 27.6634 6.05645C27.7577 6.27766 27.8815 6.45671 28.0775 6.74028L28.0808 6.74512C28.2689 7.01727 28.5149 7.3757 28.7 7.84929C28.8891 8.33292 29 8.8935 29 9.59413C29 11.0816 28.363 12.1612 27.7438 12.8503C27.4363 13.1926 27.1294 13.4438 26.8966 13.6113C26.7797 13.6955 26.6796 13.7598 26.605 13.8051C26.5677 13.8278 26.5365 13.8458 26.5126 13.8592C26.5007 13.866 26.4905 13.8715 26.4823 13.876L26.4714 13.8819L26.4671 13.8842L26.4652 13.8852L26.4643 13.8856C26.4639 13.8858 26.4635 13.8861 26 12.9999C25.5365 12.1138 25.5361 12.114 25.5358 12.1142L25.535 12.1146L25.5337 12.1153L25.5315 12.1165L25.5292 12.1177L25.5323 12.116C25.5377 12.1129 25.5495 12.1062 25.5669 12.0957C25.6016 12.0745 25.6578 12.0387 25.7284 11.988C25.8706 11.8856 26.0637 11.7277 26.2562 11.5136C26.637 11.0897 27 10.4664 27 9.59413C27 9.11489 26.9261 8.80456 26.8374 8.57759C26.7447 8.34058 26.6197 8.14872 26.4355 7.88224L26.4002 7.83127C26.2287 7.58395 25.9998 7.25382 25.8238 6.84134C25.6271 6.3804 25.5067 5.84899 25.5001 5.18319C25.4866 3.83962 25.9593 2.96161 26.6414 2.46383C26.9568 2.23367 27.272 2.11934 27.5089 2.06201C27.6281 2.03315 27.7313 2.01779 27.8107 2.00956C27.8506 2.00543 27.885 2.00305 27.9131 2.00169C27.9271 2.00102 27.9396 2.00059 27.9505 2.00034L27.9656 2.00007L27.9722 2.00002L27.9753 2L27.9767 2C27.9774 2 27.9782 2 27.9781 3C27.9781 4 27.9788 4 27.9795 4L27.9809 4L27.9835 3.99998L27.9885 3.99994L27.9972 3.99979L28.0095 3.99937L28.0159 3.99898C28.017 3.9989 28.0173 3.99887 28.0168 3.99892C28.0142 3.99919 28.0004 4.00079 27.9794 4.00589C27.9356 4.01647 27.8772 4.03795 27.8203 4.07944ZM14 29V18H18.3823H19.0832H41.1981H41.5151H45.8974H46V28H45.9672C45.989 28.3305 46 28.664 46 29C46 37.2843 39.2843 44 31 44C30.8298 44 30.6603 43.9972 30.4915 43.9915C30.3114 43.9972 30.1304 44 29.9487 44C21.0368 44 14 37.1833 14 29ZM47.8974 18V20.0173C50.1966 20.2185 52 22.1486 52 24.5V29.5C52 31.9853 49.9853 34 47.5 34H47.2692C47.2157 34 47.1625 33.9991 47.1094 33.9972C44.8561 40.9473 38.0254 46 29.9487 46C20.0359 46 12 38.3888 12 29V18V16H14H18H18.3823H21.9872H38.4883H41.5151H45H45.8974H47.8974H48V18H47.8974ZM47.8974 22.0314C49.0893 22.2218 50 23.2545 50 24.5V29.5C50 30.8407 48.9446 31.9349 47.6194 31.9972C47.8021 31.0242 47.8974 30.0227 47.8974 29V22.0314ZM34.5 5.1631C34.4916 4.33349 34.758 4.12493 34.8203 4.07944C34.8772 4.03795 34.9356 4.01647 34.9794 4.00589C35.0004 4.00079 35.0142 3.99919 35.0168 3.99892C35.0178 3.99881 35.0156 3.99907 35.0095 3.99937L34.9972 3.99979L34.9885 3.99994L34.9835 3.99998L34.9809 4L34.9795 4C34.9788 4 34.9781 4 34.9781 3C34.9782 2 34.9774 2 34.9767 2L34.9753 2L34.9722 2.00002L34.9656 2.00007L34.9505 2.00034C34.9396 2.00059 34.9271 2.00102 34.9131 2.00169C34.885 2.00305 34.8506 2.00543 34.8107 2.00956C34.7313 2.01779 34.6281 2.03315 34.5089 2.06201C34.272 2.11934 33.9568 2.23367 33.6414 2.46383C32.9593 2.96161 32.4866 3.83962 32.5 5.18319C32.5067 5.84899 32.6271 6.3804 32.8238 6.84134C32.9998 7.25382 33.2287 7.58395 33.4002 7.83127L33.4355 7.88224C33.6197 8.14872 33.7447 8.34058 33.8374 8.57759C33.9261 8.80456 34 9.11489 34 9.59413C34 10.4664 33.637 11.0897 33.2561 11.5136C33.0637 11.7277 32.8706 11.8856 32.7284 11.988C32.6578 12.0387 32.6016 12.0745 32.5669 12.0957C32.5495 12.1062 32.5377 12.1129 32.5323 12.116C32.5305 12.117 32.5294 12.1176 32.5291 12.1178L32.5292 12.1177L32.5315 12.1165L32.5337 12.1153L32.535 12.1146L32.5358 12.1142C32.5361 12.114 32.5365 12.1138 33 12.9999C33.4635 13.8861 33.4639 13.8858 33.4643 13.8856L33.4652 13.8852L33.4671 13.8842L33.4714 13.8819L33.4823 13.876C33.4905 13.8715 33.5007 13.866 33.5126 13.8592C33.5365 13.8458 33.5677 13.8278 33.605 13.8051C33.6796 13.7598 33.7797 13.6955 33.8966 13.6113C34.1294 13.4438 34.4363 13.1926 34.7439 12.8503C35.363 12.1612 36 11.0816 36 9.59413C36 8.8935 35.8891 8.33292 35.7 7.84929C35.5149 7.3757 35.2689 7.01727 35.0808 6.74512L35.0775 6.74028C34.8815 6.45671 34.7577 6.27766 34.6634 6.05645C34.5767 5.85343 34.5042 5.58389 34.5 5.1631Z" fill="#8995AF"/>
</svg>
