<svg width="48" height="48" viewBox="0 0 48 48" fill="none" xmlns="http://www.w3.org/2000/svg">
  <path fill-rule="evenodd" clip-rule="evenodd" d="M19.8203 4.07944C19.758 4.12493 19.4916 4.33349 19.4999 5.1631C19.5042 5.58389 19.5767 5.85343 19.6634 6.05645C19.7577 6.27766 19.8815 6.45671 20.0775 6.74028L20.0808 6.74512C20.2689 7.01727 20.5149 7.3757 20.7 7.84929C20.8891 8.33292 21 8.8935 21 9.59413C21 11.0816 20.363 12.1612 19.7438 12.8503C19.4363 13.1926 19.1294 13.4438 18.8966 13.6113C18.7797 13.6955 18.6796 13.7598 18.605 13.8051C18.5677 13.8278 18.5365 13.8458 18.5126 13.8592C18.5007 13.866 18.4905 13.8715 18.4823 13.876L18.4714 13.8819L18.4671 13.8842L18.4652 13.8852L18.4643 13.8856C18.4639 13.8858 18.4635 13.8861 18 12.9999C17.5365 12.1138 17.5361 12.114 17.5358 12.1142L17.535 12.1146L17.5337 12.1153L17.5315 12.1165L17.5292 12.1177L17.5323 12.116C17.5377 12.1129 17.5495 12.1062 17.5669 12.0957C17.6016 12.0745 17.6578 12.0387 17.7284 11.988C17.8706 11.8856 18.0637 11.7277 18.2562 11.5136C18.637 11.0897 19 10.4664 19 9.59413C19 9.11489 18.9261 8.80456 18.8374 8.57759C18.7447 8.34058 18.6197 8.14872 18.4355 7.88224L18.4002 7.83127C18.2287 7.58395 17.9998 7.25382 17.8238 6.84134C17.6271 6.3804 17.5067 5.84899 17.5001 5.18319C17.4866 3.83962 17.9593 2.96161 18.6414 2.46383C18.9568 2.23367 19.272 2.11934 19.5089 2.06201C19.6281 2.03315 19.7313 2.01779 19.8107 2.00956C19.8506 2.00543 19.885 2.00305 19.9131 2.00169C19.9271 2.00102 19.9396 2.00059 19.9505 2.00034L19.9656 2.00007L19.9722 2.00002L19.9753 2L19.9767 2C19.9774 2 19.9782 2 19.9781 3C19.9781 4 19.9788 4 19.9795 4L19.9809 4L19.9835 3.99998L19.9885 3.99994L19.9972 3.99979L20.0095 3.99937L20.0159 3.99898C20.017 3.9989 20.0173 3.99887 20.0168 3.99892C20.0142 3.99919 20.0004 4.00079 19.9794 4.00589C19.9356 4.01647 19.8772 4.03795 19.8203 4.07944ZM6 29V18H10.3823H11.0832H33.1981H33.5151H37.8974H38V28H37.9672C37.989 28.3305 38 28.664 38 29C38 37.2843 31.2843 44 23 44C22.8298 44 22.6603 43.9972 22.4915 43.9915C22.3114 43.9972 22.1304 44 21.9487 44C13.0368 44 6 37.1833 6 29ZM39.8974 18V20.0173C42.1966 20.2185 44 22.1486 44 24.5V29.5C44 31.9853 41.9853 34 39.5 34H39.2692C39.2157 34 39.1625 33.9991 39.1094 33.9972C36.8561 40.9473 30.0254 46 21.9487 46C12.0359 46 4 38.3888 4 29V18V16H6H10H10.3823H13.9872H30.4883H33.5151H37H37.8974H39.8974H40V18H39.8974ZM39.8974 22.0314C41.0893 22.2218 42 23.2545 42 24.5V29.5C42 30.8407 40.9446 31.9349 39.6194 31.9972C39.8021 31.0242 39.8974 30.0227 39.8974 29V22.0314ZM26.5 5.1631C26.4916 4.33349 26.758 4.12493 26.8203 4.07944C26.8772 4.03795 26.9356 4.01647 26.9794 4.00589C27.0004 4.00079 27.0142 3.99919 27.0168 3.99892C27.0178 3.99881 27.0156 3.99907 27.0095 3.99937L26.9972 3.99979L26.9885 3.99994L26.9835 3.99998L26.9809 4L26.9795 4C26.9788 4 26.9781 4 26.9781 3C26.9782 2 26.9774 2 26.9767 2L26.9753 2L26.9722 2.00002L26.9656 2.00007L26.9505 2.00034C26.9396 2.00059 26.9271 2.00102 26.9131 2.00169C26.885 2.00305 26.8506 2.00543 26.8107 2.00956C26.7313 2.01779 26.6281 2.03315 26.5089 2.06201C26.272 2.11934 25.9568 2.23367 25.6414 2.46383C24.9593 2.96161 24.4866 3.83962 24.5 5.18319C24.5067 5.84899 24.6271 6.3804 24.8238 6.84134C24.9998 7.25382 25.2287 7.58395 25.4002 7.83127L25.4355 7.88224C25.6197 8.14872 25.7447 8.34058 25.8374 8.57759C25.9261 8.80456 26 9.11489 26 9.59413C26 10.4664 25.637 11.0897 25.2561 11.5136C25.0637 11.7277 24.8706 11.8856 24.7284 11.988C24.6578 12.0387 24.6016 12.0745 24.5669 12.0957C24.5495 12.1062 24.5377 12.1129 24.5323 12.116C24.5305 12.117 24.5294 12.1176 24.5291 12.1178L24.5292 12.1177L24.5315 12.1165L24.5337 12.1153L24.535 12.1146L24.5358 12.1142C24.5361 12.114 24.5365 12.1138 25 12.9999C25.4635 13.8861 25.4639 13.8858 25.4643 13.8856L25.4652 13.8852L25.4671 13.8842L25.4714 13.8819L25.4823 13.876C25.4905 13.8715 25.5007 13.866 25.5126 13.8592C25.5365 13.8458 25.5677 13.8278 25.605 13.8051C25.6796 13.7598 25.7797 13.6955 25.8966 13.6113C26.1294 13.4438 26.4363 13.1926 26.7439 12.8503C27.363 12.1612 28 11.0816 28 9.59413C28 8.8935 27.8891 8.33292 27.7 7.84929C27.5149 7.3757 27.2689 7.01727 27.0808 6.74512L27.0775 6.74028C26.8815 6.45671 26.7577 6.27766 26.6634 6.05645C26.5767 5.85343 26.5042 5.58389 26.5 5.1631Z" fill="url(#paint0_linear)"/>
  <defs>
    <linearGradient id="paint0_linear" x1="24" y1="2" x2="24" y2="46" gradientUnits="userSpaceOnUse">
      <stop stop-color="#C9A15D"/>
      <stop offset="1" stop-color="#BA9462"/>
    </linearGradient>
  </defs>
</svg>
