<svg width="13" height="15" viewBox="0 0 14 15" fill="none" xmlns="http://www.w3.org/2000/svg">
<path fill-rule="evenodd" clip-rule="evenodd" d="M5 1.5C5 1.41262 5.04873 1.28338 5.16605 1.16605C5.28338 1.04873 5.41262 1 5.5 1V0C5.08738 0 4.71662 0.201274 4.45895 0.458947C4.20127 0.71662 4 1.08738 4 1.5C4 1.88387 4.1956 2.15013 4.29581 2.28654L4.29584 2.28658C4.31111 2.30737 4.32417 2.32514 4.33397 2.33985C4.4089 2.45224 4.5 2.60682 4.5 3C4.5 3.16251 4.46081 3.25115 4.42772 3.30077C4.39255 3.35353 4.34208 3.39494 4.27639 3.42779C4.20875 3.46161 4.13505 3.48101 4.07405 3.49118C4.04473 3.49606 4.0214 3.49831 4.00735 3.49932C4.0004 3.49981 3.996 3.49999 3.99457 3.50003L3.99419 3.50005L3.99481 3.50003L3.99676 3.50001L3.99821 3.5L3.99907 3.5L3.99952 3.5C3.99976 3.5 4 3.5 4 4C4 4.5 4.00025 4.5 4.0005 4.5L4.00103 4.5L4.00215 4.5L4.00469 4.49998L4.01093 4.4999L4.02789 4.49948C4.04111 4.49904 4.05819 4.49823 4.07859 4.49678C4.11923 4.49387 4.17402 4.48831 4.23845 4.47757C4.36495 4.45649 4.54125 4.41339 4.72361 4.32221C4.90792 4.23006 5.10745 4.08397 5.25978 3.85548C5.41419 3.62385 5.5 3.33749 5.5 3C5.5 2.39318 5.3411 2.04776 5.16603 1.78515C5.11751 1.71238 5.08313 1.66244 5.05877 1.62706C5.0147 1.56305 5.00346 1.54673 5.00073 1.52909C4.9998 1.52306 4.99986 1.51687 4.99995 1.50856C4.99997 1.50594 5 1.50311 5 1.5ZM7 1.5C7 1.41262 7.04873 1.28338 7.16605 1.16605C7.28338 1.04873 7.41262 1 7.5 1V0C7.08738 0 6.71662 0.201274 6.45895 0.458947C6.20127 0.71662 6 1.08738 6 1.5C6 1.88387 6.1956 2.15013 6.29581 2.28654L6.29584 2.28658C6.31111 2.30737 6.32417 2.32514 6.33397 2.33985C6.4089 2.45224 6.5 2.60682 6.5 3C6.5 3.16251 6.46081 3.25115 6.42772 3.30077C6.39255 3.35353 6.34208 3.39494 6.27639 3.42779C6.20875 3.46161 6.13505 3.48101 6.07405 3.49118C6.04473 3.49606 6.0214 3.49831 6.00735 3.49932C6.0004 3.49981 5.996 3.49999 5.99457 3.50003C5.99412 3.50005 5.99398 3.50005 5.99417 3.50005C5.99428 3.50004 5.99449 3.50004 5.99481 3.50003L5.99676 3.50001L5.99821 3.5L5.99907 3.5L5.99952 3.5C5.99976 3.5 6 3.5 6 4C6 4.5 6.00025 4.5 6.0005 4.5L6.00103 4.5L6.00215 4.5L6.00469 4.49998L6.01093 4.4999L6.02789 4.49948C6.04111 4.49904 6.05819 4.49823 6.07859 4.49678C6.11923 4.49387 6.17402 4.48831 6.23845 4.47757C6.36495 4.45649 6.54125 4.41339 6.72361 4.32221C6.90792 4.23006 7.10745 4.08397 7.25978 3.85548C7.41419 3.62385 7.5 3.33749 7.5 3C7.5 2.39318 7.3411 2.04776 7.16603 1.78515C7.11751 1.71238 7.08313 1.66244 7.05877 1.62706C7.0147 1.56305 7.00346 1.54673 7.00073 1.52909C6.9998 1.52306 6.99986 1.51687 6.99995 1.50856C6.99997 1.50594 7 1.50311 7 1.5ZM10 7.5V6H1V10C1 12.2091 2.79086 14 5 14H6C8.20914 14 10 12.2091 10 10V9.5V7.5ZM6 15C8.45957 15 10.5043 13.2241 10.922 10.8846C11.0999 10.9589 11.2951 11 11.5 11C12.3284 11 13 10.3284 13 9.5V7.5C13 6.67157 12.3284 6 11.5 6C11.3247 6 11.1564 6.03008 11 6.08535V6V5H10H1H0V6V10C0 12.7614 2.23858 15 5 15H6ZM11.5 10C11.2239 10 11 9.77614 11 9.5V7.5C11 7.22386 11.2239 7 11.5 7C11.7761 7 12 7.22386 12 7.5V9.5C12 9.77614 11.7761 10 11.5 10Z" fill="#8995AF"/>
</svg>
