<svg width="90" height="90" viewBox="0 0 90 90" fill="none" xmlns="http://www.w3.org/2000/svg">
<rect width="90" height="90" rx="45" fill="white"/>
<rect x="1" y="1" width="88" height="88" rx="44" stroke="#8995AF" stroke-opacity="0.2" stroke-width="2"/>
<path d="M57.1875 50.1484H32.8125C31.7786 50.1484 30.9375 50.9896 30.9375 52.0234V58.3984C30.9375 59.4323 31.7786 60.2734 32.8125 60.2734H57.1875C58.2214 60.2734 59.0625 59.4322 59.0625 58.3984V52.0234C59.0625 50.9896 58.2214 50.1484 57.1875 50.1484ZM57.1875 58.3984H32.8125V52.0234H57.1875L57.1887 58.3984C57.1887 58.3984 57.1883 58.3984 57.1875 58.3984Z" fill="#C9A15D"/>
<path d="M46.5066 64.8684C46.3322 64.6941 46.0903 64.5938 45.8438 64.5938C45.5972 64.5938 45.3553 64.6941 45.1809 64.8684C45.0066 65.0428 44.9062 65.2847 44.9062 65.5312C44.9062 65.7778 45.0066 66.0197 45.1809 66.1941C45.3553 66.3684 45.5972 66.4688 45.8438 66.4688C46.0903 66.4688 46.3322 66.3684 46.5066 66.1941C46.6809 66.0197 46.7812 65.7778 46.7812 65.5312C46.7812 65.2847 46.6809 65.0428 46.5066 64.8684Z" fill="#C9A15D"/>
<path d="M66.1875 43.9532H64.6875V40.5782C64.6875 39.5443 63.8464 38.7032 62.8125 38.7032H60.3946C61.8482 37.3824 62.7623 35.4779 62.7623 33.3638C62.7623 31.3686 61.925 29.4444 60.4651 28.0847L55.8464 23.7828C55.5734 23.5284 55.1755 23.4603 54.8333 23.6091C54.4912 23.758 54.2699 24.0956 54.2699 24.4687V25.0117C54.2699 26.4405 53.6318 27.774 52.5191 28.6704C51.687 29.3409 50.6401 29.7102 49.5714 29.7102H33.2342C30.2379 29.7102 27.8003 32.1478 27.8003 35.1441C27.8003 36.5046 28.304 37.7489 29.1332 38.7031H27.1875C26.1536 38.7031 25.3125 39.5442 25.3125 40.5781V43.9531H23.8125C22.2617 43.9531 21 45.2148 21 46.7656V57.2812C21 62.3473 25.1214 66.4687 30.1875 66.4687H42.1875C42.7053 66.4687 43.125 66.049 43.125 65.5312C43.125 65.0134 42.7053 64.5937 42.1875 64.5937H30.1875C26.1554 64.5937 22.875 61.3133 22.875 57.2812V46.7657C22.875 46.2487 23.2956 45.8282 23.8125 45.8282H66.1875C66.7044 45.8282 67.125 46.2487 67.125 46.7657V57.2812C67.125 61.3133 63.8446 64.5937 59.8125 64.5937H49.9688C49.451 64.5937 49.0312 65.0134 49.0312 65.5312C49.0312 66.049 49.451 66.4687 49.9688 66.4687H59.8125C64.8786 66.4687 69 62.3473 69 57.2812V46.7657C69 45.2149 67.7383 43.9532 66.1875 43.9532ZM33.2342 31.5852H49.5714C51.0666 31.5852 52.5312 31.0685 53.6955 30.1305C54.8647 29.1884 55.6595 27.9013 55.9826 26.4719L59.1872 29.4567C60.2677 30.463 60.8873 31.8871 60.8873 33.3637C60.8873 36.3079 58.4921 38.7031 55.548 38.7031H54.1045H34.7613H33.2342C31.2717 38.7032 29.6753 37.1066 29.6753 35.1441C29.6753 33.1818 31.2718 31.5852 33.2342 31.5852ZM62.8125 43.9532H27.1875V40.5782H62.8125V43.9532Z" fill="#C9A15D"/>
<path d="M52.4062 54.2734H37.5938C37.076 54.2734 36.6562 54.6932 36.6562 55.2109C36.6562 55.7287 37.076 56.1484 37.5938 56.1484H52.4062C52.924 56.1484 53.3438 55.7287 53.3438 55.2109C53.3438 54.6932 52.924 54.2734 52.4062 54.2734Z" fill="#C9A15D"/>
<path d="M43.5937 33.46H36.9062C36.3885 33.46 35.9688 33.8797 35.9688 34.3975C35.9688 34.9152 36.3885 35.335 36.9062 35.335H43.5937C44.1115 35.335 44.5312 34.9152 44.5312 34.3975C44.5312 33.8797 44.1115 33.46 43.5937 33.46Z" fill="#C9A15D"/>
<path d="M48.1472 33.7346C47.9728 33.5603 47.7309 33.46 47.4844 33.46C47.2378 33.46 46.9959 33.5603 46.8216 33.7346C46.6472 33.909 46.5469 34.1509 46.5469 34.3975C46.5469 34.644 46.6472 34.8859 46.8216 35.0603C46.9959 35.2346 47.2378 35.335 47.4844 35.335C47.7309 35.335 47.9728 35.2346 48.1472 35.0603C48.3216 34.8859 48.4219 34.644 48.4219 34.3975C48.4219 34.1509 48.3216 33.909 48.1472 33.7346Z" fill="#C9A15D"/>
</svg>
