<svg width="165" height="37" viewBox="0 0 165 37" fill="none" xmlns="http://www.w3.org/2000/svg">
<path d="M24.9713 30.0056H18.0518V5.46174H6.91951V30.0056H0V0.353516H24.9713V30.0056Z" fill="#07101C"/>
<path d="M35.9843 24.2665C36.4592 24.7821 36.9747 25.1484 37.531 25.3655C38.0873 25.5826 38.6707 25.6911 39.2812 25.6911C39.8646 25.6911 40.4006 25.5758 40.889 25.3451C41.3774 25.1145 41.798 24.7482 42.1508 24.2462C42.5171 23.7306 42.802 23.0658 43.0056 22.2517C43.2091 21.4377 43.3108 20.4472 43.3108 19.2804C43.3108 18.1679 43.2294 17.2317 43.0666 16.4719C42.9038 15.7121 42.6731 15.1016 42.3747 14.6403C42.0897 14.1654 41.7438 13.8262 41.3367 13.6227C40.9297 13.4192 40.4752 13.3174 39.9732 13.3174C39.0506 13.3174 38.2908 13.487 37.6938 13.8262C37.0968 14.1654 36.527 14.6606 35.9843 15.3119V24.2665ZM35.5976 11.5061C36.4252 10.6242 37.3614 9.90515 38.4061 9.34887C39.4644 8.77903 40.7194 8.49411 42.1711 8.49411C43.2701 8.49411 44.2877 8.73833 45.2239 9.22676C46.16 9.7152 46.9673 10.4207 47.6457 11.3433C48.3241 12.2659 48.8532 13.3988 49.2331 14.742C49.6266 16.0716 49.8233 17.5844 49.8233 19.2804C49.8233 20.8678 49.5994 22.3331 49.1517 23.6763C48.7175 25.0195 48.1002 26.1863 47.2997 27.1768C46.5128 28.1672 45.5631 28.9406 44.4505 29.4968C43.3515 30.0531 42.1304 30.3313 40.7872 30.3313C39.6883 30.3313 38.7657 30.1752 38.0194 29.8632C37.2732 29.5511 36.5948 29.1305 35.9843 28.6014V36.7013H29.6753V8.90114H33.5828C34.3697 8.90114 34.8853 9.2539 35.1295 9.95942L35.5976 11.5061Z" fill="#07101C"/>
<path d="M62.7757 8.57552C64.3767 8.57552 65.8353 8.82652 67.1513 9.32852C68.4674 9.83052 69.5935 10.5496 70.5297 11.4858C71.4794 12.4219 72.2121 13.5616 72.7276 14.9048C73.2568 16.2345 73.5213 17.7337 73.5213 19.4025C73.5213 21.0849 73.2568 22.6045 72.7276 23.9612C72.2121 25.3044 71.4794 26.4509 70.5297 27.4006C69.5935 28.3368 68.4674 29.0627 67.1513 29.5783C65.8353 30.0803 64.3767 30.3313 62.7757 30.3313C61.1612 30.3313 59.6891 30.0803 58.3595 29.5783C57.0434 29.0627 55.9037 28.3368 54.9404 27.4006C53.9907 26.4509 53.2513 25.3044 52.7221 23.9612C52.2065 22.6045 51.9488 21.0849 51.9488 19.4025C51.9488 17.7337 52.2065 16.2345 52.7221 14.9048C53.2513 13.5616 53.9907 12.4219 54.9404 11.4858C55.9037 10.5496 57.0434 9.83052 58.3595 9.32852C59.6891 8.82652 61.1612 8.57552 62.7757 8.57552ZM62.7757 25.6504C64.2275 25.6504 65.2925 25.1416 65.9709 24.1241C66.6629 23.0929 67.0089 21.5326 67.0089 19.4432C67.0089 17.3538 66.6629 15.8003 65.9709 14.7827C65.2925 13.7651 64.2275 13.2564 62.7757 13.2564C61.2833 13.2564 60.1911 13.7651 59.4992 14.7827C58.8072 15.8003 58.4612 17.3538 58.4612 19.4432C58.4612 21.5326 58.8072 23.0929 59.4992 24.1241C60.1911 25.1416 61.2833 25.6504 62.7757 25.6504Z" fill="#07101C"/>
<path d="M89.9374 25.6708V13.5616H86.0502C85.9281 15.0541 85.7721 16.4176 85.5821 17.6523C85.4057 18.8869 85.2022 19.9995 84.9716 20.9899C84.7409 21.9804 84.4832 22.8623 84.1982 23.6356C83.9269 24.409 83.6352 25.0874 83.3231 25.6708H89.9374ZM99.9299 25.4876V35.1342C99.9299 35.6769 99.7603 36.1111 99.4211 36.4367C99.0955 36.7623 98.6749 36.9251 98.1593 36.9251H94.1908V30.0056H80.1279V35.2156C80.1279 35.4327 80.094 35.643 80.0262 35.8465C79.9583 36.05 79.8498 36.2332 79.7006 36.396C79.5649 36.5588 79.3885 36.6877 79.1714 36.7827C78.9543 36.8777 78.6965 36.9251 78.3981 36.9251H74.3888V25.6708H74.8976C75.3589 25.6708 75.8066 25.6233 76.2408 25.5283C76.6885 25.4198 77.1091 25.1823 77.5026 24.816C77.9096 24.4497 78.2827 23.907 78.6219 23.1879C78.9747 22.4688 79.2935 21.4919 79.5784 20.2573C79.8769 19.009 80.1347 17.4623 80.3518 15.6171C80.5825 13.7584 80.7656 11.5197 80.9013 8.90114H96.0428V25.4876H99.9299Z" fill="#07101C"/>
<path d="M121.429 8.90114L110.154 35.4802C109.964 35.9008 109.733 36.2061 109.462 36.396C109.191 36.5995 108.757 36.7013 108.16 36.7013H103.438L107.508 28.1536L99.0828 8.90114H104.659C105.148 8.90114 105.521 9.00968 105.778 9.22676C106.05 9.44385 106.247 9.70163 106.369 10.0001L109.828 19.0972C110.154 19.9249 110.419 20.7728 110.622 21.6412C110.771 21.207 110.921 20.7728 111.07 20.3387C111.219 19.9045 111.375 19.4771 111.538 19.0565L114.672 10.0001C114.794 9.68806 115.011 9.43028 115.323 9.22676C115.635 9.00968 115.975 8.90114 116.341 8.90114H121.429Z" fill="#07101C"/>
<path d="M135.699 10.4886C136.011 10.0137 136.424 9.63379 136.94 9.34887C137.469 9.05038 138.019 8.90114 138.589 8.90114H143.575L139.138 16.5737C138.799 17.1435 138.453 17.6048 138.1 17.9576C137.747 18.3103 137.32 18.5817 136.818 18.7716C137.51 19.0023 138.073 19.3279 138.507 19.7485C138.941 20.1691 139.328 20.6982 139.667 21.3359L144.083 30.0056H139.728C139.172 30.0056 138.684 29.9649 138.263 29.8835C137.856 29.7886 137.49 29.6529 137.164 29.4765C136.838 29.3001 136.553 29.083 136.309 28.8252C136.065 28.5675 135.841 28.269 135.638 27.9298L133.399 22.618C133.195 22.1432 132.897 21.7972 132.503 21.5801C132.124 21.3495 131.683 21.2341 131.181 21.2341H129.593V30.0056H123.284V8.90114H129.593V17.2656H130.896C131.466 17.2656 131.886 17.1774 132.157 17.001C132.442 16.8111 132.693 16.499 132.91 16.0649L135.699 10.4886Z" fill="#07101C"/>
<path d="M165 13.4192H157.979V30.0056H151.67V13.4192H144.649V8.90114H165V13.4192Z" fill="#07101C"/>
<path d="M140.404 24.3066H154.243V30.0051H140.404V24.3066Z" fill="#07101C"/>
<path d="M19.9238 24.3066H33.7628V30.0051H19.9238V24.3066Z" fill="#07101C"/>
</svg>
