<svg width="16" height="29" viewBox="0 0 16 29" fill="none" xmlns="http://www.w3.org/2000/svg">
<path d="M15.3975 0.00603394L11.5598 0C7.24832 0 4.46205 2.80125 4.46205 7.13694V10.4275H0.603437C0.270007 10.4275 0 10.6924 0 11.0192V15.7869C0 16.1136 0.270315 16.3782 0.603437 16.3782H4.46205V28.4087C4.46205 28.7354 4.73205 29 5.06548 29H10.0999C10.4333 29 10.7033 28.7351 10.7033 28.4087V16.3782H15.2149C15.5483 16.3782 15.8184 16.1136 15.8184 15.7869L15.8202 11.0192C15.8202 10.8623 15.7565 10.712 15.6435 10.601C15.5305 10.49 15.3766 10.4275 15.2165 10.4275H10.7033V7.63806C10.7033 6.29732 11.0293 5.61669 12.8116 5.61669L15.3969 5.61578C15.73 5.61578 16 5.35089 16 5.02446V0.59736C16 0.271225 15.7303 0.00663733 15.3975 0.00603394Z" fill="black"/>
</svg>
