<svg width="90" height="90" viewBox="0 0 90 90" fill="none" xmlns="http://www.w3.org/2000/svg">
<rect width="90" height="90" rx="45" fill="white"/>
<rect x="1" y="1" width="88" height="88" rx="44" stroke="#8995AF" stroke-opacity="0.2" stroke-width="2"/>
<path d="M45.0114 44.1004L42.4796 41.5685C41.687 40.7759 40.6332 40.3395 39.5123 40.3395C38.3914 40.3395 37.3376 40.776 36.5451 41.5686C35.924 42.1898 35.5189 42.976 35.3737 43.8424L35.0257 45.9193C34.426 49.4974 32.7533 52.7447 30.188 55.3102C28.5178 56.9804 25.8 56.9804 24.1296 55.3101C23.3203 54.501 22.8748 53.4253 22.8748 52.2809C22.8748 51.1366 23.3204 50.0608 24.1295 49.2516L33.7843 39.5965C34.1504 39.2304 34.1504 38.6367 33.7843 38.2706C33.4182 37.9046 32.8245 37.9046 32.4586 38.2706L22.8038 47.9259C21.6406 49.0892 21 50.6358 21 52.281C21 53.9262 21.6406 55.4728 22.8038 56.6361C24.0046 57.8368 25.5816 58.437 27.1587 58.437C28.7358 58.437 30.313 57.8366 31.5137 56.636C34.3566 53.793 36.2104 50.1945 36.8748 46.2291L37.2228 44.1522C37.3031 43.6729 37.5272 43.2379 37.8709 42.8943C38.3093 42.4557 38.8924 42.2143 39.5123 42.2143C40.1324 42.2143 40.7154 42.4557 41.1537 42.8943L43.6855 45.4262C44.0516 45.7922 44.6453 45.7922 45.0113 45.4262C45.3775 45.0602 45.3775 44.4666 45.0114 44.1004Z" fill="#C9A15D"/>
<path d="M36.8152 35.2386C36.6408 35.0642 36.3989 34.9639 36.1523 34.9639C35.9058 34.9639 35.6639 35.0641 35.4895 35.2386C35.3152 35.413 35.2148 35.6547 35.2148 35.9014C35.2148 36.1489 35.3152 36.3898 35.4895 36.5641C35.6639 36.7394 35.9058 36.8389 36.1523 36.8389C36.3989 36.8389 36.6408 36.7394 36.8152 36.5641C36.9895 36.3898 37.0898 36.1488 37.0898 35.9014C37.0898 35.6547 36.9895 35.4129 36.8152 35.2386Z" fill="#C9A15D"/>
<path d="M61.4425 27.6682L56.5584 22.7841C55.4079 21.6336 53.8783 21 52.2512 21C50.6242 21 49.0945 21.6337 47.9441 22.7841L38.0832 32.6454C37.7171 33.0115 37.7171 33.6051 38.0832 33.9712C38.2663 34.1541 38.5062 34.2457 38.7461 34.2457C38.986 34.2457 39.226 34.1541 39.409 33.9711L49.2699 24.1101C50.0663 23.3136 51.125 22.875 52.2513 22.875C53.3775 22.875 54.4364 23.3136 55.2328 24.1101L60.1167 28.9942C60.4828 29.3602 61.0764 29.3602 61.4425 28.9942C61.8086 28.628 61.8086 28.0344 61.4425 27.6682Z" fill="#C9A15D"/>
<path d="M29.3559 50.0835C28.1445 48.8719 26.1731 48.8719 24.9615 50.0835C23.7498 51.2952 23.7498 53.2667 24.9615 54.4784C25.5673 55.0842 26.3629 55.387 27.1587 55.387C27.9544 55.387 28.7502 55.0842 29.3559 54.4784C30.5674 53.2666 30.5674 51.2952 29.3559 50.0835ZM28.0303 53.1525C27.5497 53.6332 26.7678 53.6331 26.2873 53.1525C25.8067 52.6719 25.8067 51.8899 26.2873 51.4093C26.5275 51.1691 26.8432 51.0489 27.1589 51.0489C27.4745 51.0489 27.7902 51.1691 28.0304 51.4093C28.5108 51.8899 28.5108 52.672 28.0303 53.1525Z" fill="#C9A15D"/>
<path d="M58.7042 30.407L53.4617 25.1641C53.0955 24.7982 52.5019 24.7981 52.1359 25.1641C51.7698 25.5302 51.7697 26.1239 52.1359 26.4901L57.3785 31.7329C57.5615 31.916 57.8014 32.0075 58.0414 32.0075C58.2813 32.0075 58.5213 31.916 58.7043 31.7329C59.0703 31.3668 59.0704 30.7732 58.7042 30.407Z" fill="#C9A15D"/>
<path d="M55.9651 33.1453L50.7225 27.9024C50.3564 27.5364 49.7627 27.5364 49.3966 27.9024C49.0305 28.2685 49.0305 28.8622 49.3966 29.2283L54.6393 34.4712C54.8224 34.6542 55.0624 34.7458 55.3023 34.7458C55.5422 34.7458 55.7822 34.6542 55.9652 34.4712C56.3312 34.1052 56.3312 33.5115 55.9651 33.1453Z" fill="#C9A15D"/>
<path d="M53.2267 35.8846L47.9841 30.6417C47.618 30.2757 47.0244 30.2757 46.6584 30.6417C46.2923 31.0078 46.2922 31.6014 46.6584 31.9676L51.901 37.2104C52.0841 37.3934 52.324 37.485 52.5639 37.485C52.8038 37.485 53.0438 37.3934 53.2268 37.2104C53.5928 36.8444 53.5929 36.2508 53.2267 35.8846Z" fill="#C9A15D"/>
<path d="M50.4885 38.6228L45.2458 33.38C44.8797 33.014 44.2861 33.014 43.9201 33.38C43.554 33.7461 43.554 34.3397 43.9201 34.7058L49.1628 39.9486C49.3459 40.1316 49.5858 40.2232 49.8257 40.2232C50.0656 40.2232 50.3056 40.1316 50.4886 39.9486C50.8546 39.5826 50.8546 38.989 50.4885 38.6228Z" fill="#C9A15D"/>
<path d="M47.7501 41.3611L42.5076 36.1182C42.1415 35.7523 41.5478 35.7522 41.1818 36.1182C40.8157 36.4843 40.8156 37.078 41.1818 37.4442L46.4244 42.687C46.6075 42.8701 46.8474 42.9617 47.0873 42.9617C47.3272 42.9617 47.5672 42.8701 47.7502 42.687C48.1162 42.3209 48.1163 41.7273 47.7501 41.3611Z" fill="#C9A15D"/>
<path d="M63.8585 50.3763C64.7435 49.3724 65.2279 48.0975 65.2279 46.7474C65.2279 45.2791 64.6561 43.8985 63.6179 42.8603C61.4748 40.7172 57.9873 40.7172 55.8442 42.8603C54.8059 43.8986 54.2342 45.2791 54.2342 46.7474C54.2342 48.0917 54.7148 49.3616 55.5925 50.3635H50.6719C50.1541 50.3635 49.7344 50.7833 49.7344 51.3011C49.7344 51.8188 50.1541 52.2386 50.6719 52.2386H59.3731C58.7189 52.9835 58.263 53.9057 58.0874 54.9233H36.3085C36.7226 53.3791 38.1344 52.2386 39.8075 52.2386H43.5004C44.0182 52.2386 44.4379 51.8188 44.4379 51.3011C44.4379 50.7833 44.0182 50.3635 43.5004 50.3635H39.8075C36.7765 50.3635 34.3105 52.8296 34.3105 55.8607C34.3105 56.3784 34.7303 56.7983 35.248 56.7983H48.3549L39.0892 66.0643C38.7231 66.4304 38.7231 67.024 39.0892 67.3901C40.1275 68.4285 41.5078 69.0002 42.976 69.0002C44.4443 69.0002 45.8247 68.4284 46.8628 67.3901L57.4545 56.7983H58.0874C58.5339 59.3842 60.7915 61.3579 63.5028 61.3579C66.5338 61.3579 68.9997 58.8919 68.9997 55.8607C68.9997 52.9492 66.7242 50.5604 63.8585 50.3763ZM45.5371 66.0642C44.853 66.7484 43.9435 67.1251 42.976 67.1251C42.3295 67.1251 41.7087 66.9568 41.164 66.641L51.0065 56.7982H54.803L45.5371 66.0642ZM59.5281 50.3635C58.6369 50.3146 57.806 49.9445 57.17 49.3085C56.4859 48.6244 56.1091 47.7149 56.1091 46.7474C56.1091 45.7798 56.4859 44.8702 57.17 44.1861C58.5821 42.774 60.8801 42.7739 62.2923 44.1861C62.9765 44.8702 63.3532 45.7798 63.3532 46.7474C63.3532 47.7149 62.9764 48.6244 62.2923 49.3085C61.6563 49.9446 60.8254 50.3146 59.9343 50.3635H59.5281ZM63.5027 59.4828C61.5055 59.4828 59.8807 57.858 59.8807 55.8606C59.8807 53.8633 61.5055 52.2384 63.5027 52.2384C65.4999 52.2384 67.1247 53.8632 67.1247 55.8606C67.1248 57.8579 65.5 59.4828 63.5027 59.4828Z" fill="#C9A15D"/>
<path d="M47.8669 50.638C47.6925 50.4637 47.4507 50.3633 47.2041 50.3633C46.9575 50.3633 46.7157 50.4636 46.5413 50.638C46.3669 50.8123 46.2666 51.0542 46.2666 51.3008C46.2666 51.5473 46.3669 51.7892 46.5413 51.9636C46.7157 52.1379 46.9576 52.2383 47.2041 52.2383C47.4507 52.2383 47.6925 52.138 47.8669 51.9636C48.0413 51.7892 48.1416 51.5473 48.1416 51.3008C48.1416 51.0542 48.0413 50.8123 47.8669 50.638Z" fill="#C9A15D"/>
<path d="M56.6433 53.0599C56.4689 52.8855 56.227 52.7861 55.9805 52.7861C55.733 52.7861 55.492 52.8855 55.3177 53.0599C55.1433 53.2343 55.043 53.4761 55.043 53.7236C55.043 53.9702 55.1433 54.2111 55.3177 54.3864C55.492 54.5607 55.733 54.6611 55.9805 54.6611C56.227 54.6611 56.4688 54.5607 56.6433 54.3864C56.8177 54.2111 56.918 53.9702 56.918 53.7236C56.918 53.4761 56.8177 53.2343 56.6433 53.0599Z" fill="#C9A15D"/>
</svg>
