<svg width="90" height="90" viewBox="0 0 90 90" fill="none" xmlns="http://www.w3.org/2000/svg">
<rect width="90" height="90" rx="45" fill="white"/>
<rect x="1" y="1" width="88" height="88" rx="44" stroke="#8995AF" stroke-opacity="0.2" stroke-width="2"/>
<path d="M62.5153 57.7442C61.7657 53.9892 58.2432 53.3501 58.232 53.3449V53.3451C58.1942 53.3339 58.5552 53.4245 49.6411 51.2149V50.9124H56.2031C57.5557 50.9124 58.656 49.812 58.656 48.4595V35.9448C58.7663 35.4795 58.7666 34.9957 58.656 34.5294V29.962C58.656 29.5017 58.2829 29.1288 57.8228 29.1288C57.3625 29.1288 56.9896 29.5017 56.9896 29.962V32.3532C56.5498 32.0906 56.0474 31.9023 55.506 31.8091C55.3105 30.9408 54.5893 30.2543 53.6748 30.1343C52.7216 30.009 51.9991 29.4532 51.5276 28.4826C51.3069 28.0282 50.8746 27.7297 50.3714 27.684C49.8677 27.6384 49.3909 27.8536 49.0924 28.2599C47.6602 30.2091 43.6786 34.5811 36.8032 34.5808C36.2801 34.5808 35.9254 34.5561 35.8019 34.5505C34.5385 34.4744 33.4703 35.4839 33.4703 36.7499V38.6643C33.4703 41.7242 34.7397 44.6906 36.9528 46.8029C37.6868 47.5035 38.4964 48.0878 39.3599 48.5538V49.2463H32.8279C32.3941 49.2463 32.0412 48.8934 32.0412 48.4597V29.7375C32.0412 23.6678 36.9901 18.6664 42.9681 18.6664C42.9874 18.6664 43.0068 18.6665 43.026 18.6667C45.1678 18.6781 47.6407 19.2865 49.3259 20.2161C50.3939 20.8056 51.0536 20.337 52.1083 20.337C54.6825 20.337 56.7455 22.984 56.9927 25.3648C56.9943 25.3997 56.998 25.5393 56.9984 26.0742C56.999 26.8786 57.9074 26.9403 57.8323 26.9068C58.2926 26.9064 58.6651 26.533 58.6648 26.0729C58.6647 25.9249 58.6659 25.3448 58.652 25.2102C58.317 21.8959 55.49 18.6707 52.1084 18.6707C50.7877 18.6707 50.5819 19.0054 50.131 18.7571C48.2201 17.7028 45.4347 17.0131 43.035 17.0003C36.1179 16.9555 30.3747 22.7179 30.3747 29.7374V48.4596C30.3747 49.8122 31.4752 50.9126 32.8278 50.9126H39.3599V51.215L30.8026 53.3358C30.7913 53.3386 30.7802 53.3418 30.769 53.3451L30.1438 53.5294C30.125 53.535 30.1066 53.5411 30.0883 53.5479C28.9726 53.9642 27.0211 55.0629 26.4856 57.7446C23.9496 70.4833 24.0564 69.9394 24.0503 69.983C23.7448 72.1436 24.8264 73.8719 27.4282 73.8719H36.4383C36.8986 73.8719 37.2715 73.4989 37.2715 73.0387C37.2715 72.5784 36.8985 72.2055 36.4383 72.2055H33.3029V64.3467C33.3029 63.8864 32.9299 63.5135 32.4697 63.5135C32.0095 63.5135 31.6365 63.8865 31.6365 64.3467V72.2055H27.4282C26.3214 72.2055 25.6787 71.8491 25.668 70.6865C25.6634 70.1193 25.641 70.6721 28.1199 58.0704C28.493 56.2018 29.8499 55.4212 30.6449 55.119L31.2227 54.9486L36.1368 53.7306C41.6033 60.1705 41.2796 59.8292 41.5955 60.1374C43.4201 61.9172 46.0236 61.7916 47.737 59.7793L52.8827 53.7352L57.7781 54.9485C57.9197 55.0136 60.3565 55.4422 60.8811 58.0701C63.3386 70.5627 63.3378 70.1166 63.3331 70.6858C63.3246 71.8246 62.7086 72.2056 61.5729 72.2056H57.3945V64.3467C57.3945 63.8864 57.0216 63.5135 56.5613 63.5135C56.101 63.5135 55.7281 63.8865 55.7281 64.3467V72.2055H40.3266C39.8663 72.2055 39.4934 72.5785 39.4934 73.0387C39.4934 73.499 39.8664 73.8719 40.3266 73.8719H61.5731C63.6316 73.8719 64.9806 72.7392 64.9996 70.6991C65.0066 69.7464 64.9498 70.2016 62.5153 57.7442ZM55.5605 33.528C56.2563 33.735 56.7929 34.1935 56.9897 34.7598V35.7144C56.7929 36.2808 56.2563 36.7393 55.5605 36.9461V33.528ZM55.5605 38.8094V38.6555C56.0812 38.5593 56.5648 38.3749 56.9897 38.1211V48.4596C56.9897 48.8934 56.6368 49.246 56.2032 49.246H49.6411V48.6021C53.1739 46.7552 55.5605 43.0573 55.5605 38.8094ZM38.1035 45.5972C36.2181 43.7977 35.1369 41.2707 35.1369 38.6641C35.1864 36.8499 35.0168 36.6301 35.3063 36.3575C35.4088 36.2609 35.5467 36.2048 35.7018 36.2137C41.6761 36.5734 46.8145 33.947 50.2071 29.5497C51.1218 31.1558 52.4633 31.6559 53.4579 31.7867C53.7065 31.8193 53.8941 32.0315 53.8941 32.2804C53.8941 34.5854 53.8941 36.521 53.8941 38.8095C53.8941 47.0999 43.969 51.1955 38.1035 45.5972ZM46.468 58.6989C45.3071 60.0626 43.682 60.059 42.5239 58.692L40.7854 56.6401H48.2208L46.468 58.6989ZM49.6397 54.9736H39.3737L37.9418 53.2834L40.3938 52.6756C40.7657 52.5835 41.0265 52.2416 41.0265 51.8586L41.0266 49.2809C43.3192 50.0451 45.7404 50.0368 47.9748 49.3047C47.9904 51.9678 47.939 51.9068 48.0212 52.1417C48.112 52.4014 48.3285 52.6064 48.6073 52.6755L51.0754 53.2872L49.6397 54.9736Z" fill="#C9A15D"/>
</svg>
