<svg width="90" height="90" viewBox="0 0 90 90" fill="none" xmlns="http://www.w3.org/2000/svg">
<rect width="90" height="90" rx="45" fill="white"/>
<rect x="1" y="1" width="88" height="88" rx="44" stroke="#8995AF" stroke-opacity="0.2" stroke-width="2"/>
<path d="M68.8372 44.3507L61.3101 33.2952C59.7359 30.9833 57.3994 29.2492 54.7306 28.4123C52.0617 27.5756 49.1534 27.6648 46.5411 28.6641L39.668 31.2929C39.1843 31.4779 38.9423 32.0198 39.1272 32.5033C39.3122 32.9869 39.8541 33.2287 40.3377 33.0441L47.2108 30.4153C51.8216 28.652 56.982 30.2699 59.7603 34.3504L64.3836 41.1407L56.0867 35.2972C54.3478 34.0724 52.1077 33.7511 50.0945 34.4377L25.1304 42.9514C24.2616 43.2482 23.3064 42.7843 23.0017 41.9181C22.6117 40.8095 23.1661 39.612 24.2638 39.1922L32.8536 35.9068C33.3372 35.7218 33.5792 35.1799 33.3943 34.6963C33.2092 34.2127 32.6672 33.9709 32.1838 34.1556L23.594 37.4412C21.5406 38.2265 20.5036 40.4663 21.233 42.5402C21.8774 44.3724 23.8971 45.3531 25.7356 44.7259L50.6998 36.2123C52.1468 35.7187 53.7571 35.9497 55.0072 36.8301L67.5228 45.6448C67.6857 45.7596 67.8744 45.8158 68.0623 45.8158C68.3016 45.8158 68.5393 45.7245 68.7201 45.5465C69.0428 45.2286 69.0922 44.7253 68.8372 44.3507Z" fill="#C9A15D"/>
<path d="M37.1568 32.8479C36.9824 32.6726 36.7405 32.5732 36.494 32.5732C36.2475 32.5732 36.0056 32.6726 35.8313 32.8479C35.657 33.0223 35.5566 33.2633 35.5566 33.5106C35.5566 33.7572 35.657 33.9991 35.8313 34.1734C36.0057 34.3477 36.2476 34.4481 36.494 34.4481C36.7406 34.4481 36.9825 34.3477 37.1568 34.1734C37.3311 33.999 37.4315 33.7571 37.4315 33.5106C37.4315 33.2631 37.3311 33.0223 37.1568 32.8479Z" fill="#C9A15D"/>
<path d="M61.4493 53.3305L61.4138 53.3195C60.2852 52.9693 59.3139 52.2677 58.6288 51.3198C59.3323 50.7529 60.0104 50.1466 60.6583 49.4987C61.0243 49.1327 61.0243 48.5391 60.6583 48.1729C60.2923 47.8069 59.6986 47.8069 59.3325 48.1729C55.656 51.8495 50.9599 54.1357 45.8819 54.7684C45.8478 54.7708 45.8143 54.7747 45.7813 54.7805C44.8574 54.8916 43.9212 54.9485 42.9762 54.9486C42.9757 54.9486 42.9752 54.9485 42.9747 54.9485C42.9741 54.9485 42.9737 54.9486 42.9732 54.9486C42.0282 54.9486 41.092 54.8916 40.168 54.7805C40.135 54.7746 40.1015 54.7707 40.0674 54.7684C34.9893 54.1357 30.2932 51.8495 26.6167 48.1729C26.2506 47.807 25.6571 47.8069 25.291 48.1729C24.9249 48.539 24.9249 49.1326 25.291 49.4987C25.9388 50.1466 26.617 50.753 27.3204 51.3198C26.6354 52.2677 25.6643 52.9694 24.5367 53.3192L24.4999 53.3305C24.0052 53.4833 23.7281 54.0081 23.8809 54.5028C24.0052 54.9054 24.376 55.1639 24.7762 55.1639C24.8679 55.1639 24.9611 55.1503 25.0531 55.1219L25.0911 55.1102C26.6012 54.6415 27.9019 53.705 28.8229 52.4404C29.1435 52.6614 29.4686 52.8746 29.7981 53.0796C29.3403 54.5161 28.2688 55.6768 26.8477 56.2406L26.5574 56.3556C26.0761 56.5465 25.8408 57.0914 26.0316 57.5726C26.1775 57.9406 26.5302 58.1646 26.9032 58.1646C27.0182 58.1646 27.1351 58.1433 27.2486 58.0983L27.5391 57.9831C29.3626 57.2597 30.768 55.8199 31.4549 54.0238C31.815 54.2111 32.1793 54.3893 32.5476 54.5584C32.4402 56.166 31.5107 57.6009 30.0678 58.3537L30.0119 58.3829C29.5528 58.6222 29.3747 59.1884 29.614 59.6475C29.7811 59.9682 30.1078 60.1518 30.4459 60.1518C30.5919 60.1518 30.7401 60.1175 30.8785 60.0453L30.9346 60.0161C32.7755 59.0556 34.0207 57.3049 34.347 55.3004C34.7446 55.4462 35.1459 55.5821 35.551 55.7074C35.4973 57.1944 34.9208 58.6077 33.9114 59.7089C33.5615 60.0905 33.5873 60.6834 33.969 61.0334C34.149 61.1984 34.3759 61.2797 34.6021 61.2797C34.8558 61.2797 35.1087 61.1774 35.2934 60.9757C36.5083 59.6504 37.2412 57.9772 37.3984 56.2023C37.9372 56.3244 38.4814 56.4278 39.03 56.5142C38.9085 57.9542 38.4666 59.3547 37.7314 60.6059L37.6052 60.8207C37.343 61.2671 37.4923 61.8415 37.9388 62.1038C38.0879 62.1914 38.2513 62.2331 38.4128 62.2331C38.7343 62.2331 39.0473 62.0674 39.2219 61.7702L39.348 61.5556C40.2145 60.0811 40.7398 58.4328 40.8927 56.7366C41.2725 56.7678 41.6541 56.7902 42.0372 56.8042V62.3737C42.0372 62.8914 42.4569 63.3111 42.9746 63.3111C43.4923 63.3111 43.912 62.8913 43.912 62.3737V56.8042C44.2951 56.7902 44.6766 56.7678 45.0565 56.7366C45.2093 58.4326 45.7346 60.0811 46.601 61.5554L46.7272 61.7702C46.9018 62.0675 47.2149 62.2331 47.5363 62.2331C47.6977 62.2331 47.8612 62.1914 48.0103 62.1038C48.4568 61.8415 48.606 61.2671 48.3439 60.8207L48.2176 60.6057C47.4825 59.3547 47.0406 57.9541 46.9191 56.5142C47.4677 56.4277 48.0119 56.3244 48.5507 56.2023C48.7078 57.9771 49.4409 59.6504 50.6557 60.9757C50.8406 61.1774 51.0933 61.2797 51.347 61.2797C51.5733 61.2797 51.8002 61.1983 51.9801 61.0334C52.3618 60.6835 52.3876 60.0905 52.0378 59.7089C51.0284 58.6077 50.4518 57.1942 50.3982 55.7074C50.8033 55.5821 51.2045 55.4463 51.6021 55.3004C51.9284 57.305 53.1737 59.0557 55.0148 60.0162L55.0707 60.0453C55.2091 60.1175 55.3573 60.1518 55.5032 60.1518C55.8415 60.1518 56.168 59.9681 56.3352 59.6475C56.5745 59.1884 56.3964 58.6221 55.9372 58.3829L55.8816 58.3538C54.4384 57.601 53.509 56.166 53.4015 54.5584C53.77 54.3893 54.1342 54.2111 54.4942 54.0238C55.181 55.8199 56.5864 57.2597 58.4101 57.9832L58.7006 58.0984C58.814 58.1433 58.9309 58.1647 59.0459 58.1647C59.419 58.1647 59.7717 57.9404 59.9175 57.5727C60.1084 57.0914 59.873 56.5466 59.3917 56.3557L59.1014 56.2406C57.6802 55.6767 56.6086 54.516 56.1509 53.0795C56.4805 52.8745 56.8055 52.6613 57.1261 52.4403C58.0471 53.705 59.3479 54.6415 60.8592 55.1104L60.8959 55.1218C60.9881 55.1503 61.0813 55.1638 61.1729 55.1638C61.5732 55.1638 61.9438 54.9052 62.0682 54.5028C62.2212 54.0081 61.9441 53.4833 61.4493 53.3305Z" fill="#C9A15D"/>
</svg>
