<svg width="195" height="64" viewBox="0 0 195 64" fill="none" xmlns="http://www.w3.org/2000/svg">
<g clip-path="url(#clip0)">
<path fill-rule="evenodd" clip-rule="evenodd" d="M163.308 0C145.806 0 131.617 14.1888 131.617 31.6915C131.617 49.1943 145.806 63.3831 163.308 63.3831C180.812 63.3831 195 49.1943 195 31.6915C195 14.1888 180.812 0 163.308 0ZM163.228 15.199C154.164 15.199 146.816 22.5468 146.816 31.6107C146.816 40.6746 154.164 48.0224 163.228 48.0224C172.292 48.0224 179.639 40.6746 179.639 31.6107C179.639 22.5468 172.292 15.199 163.228 15.199Z" fill="#07101C"/>
<path d="M121.915 61.4428V2.50621H106.959V39.3719L79.5522 2.50621H64.0299V61.4428H79.5522V23.8495L106.959 61.4428H121.915ZM51.8563 2.26367H35.8488C35.8488 2.26367 37.3001 38.4017 34.7131 43.8992C32.126 49.3968 26.7902 49.2351 25.4158 49.2351C24.0414 49.2351 19.7605 48.75 17.2543 43.8992C14.7481 39.0485 15.5566 24.4963 15.5566 24.4963H0.0341708C0.0341708 24.4963 -0.0427135 42.3632 0.0341708 43.8992C0.111055 45.4353 -0.370058 51.0945 6.9869 57.5622C14.3439 64.0298 24.8538 63.3022 24.8538 63.3022C24.8538 63.3022 38.5128 63.6256 44.8996 57.5622C51.2865 51.4987 51.6178 44.7885 51.8563 43.2525C52.0949 41.7164 51.8563 2.26367 51.8563 2.26367Z" fill="#07101C"/>
<path d="M15.5224 9.86318C15.5224 5.57679 12.0476 2.10199 7.76119 2.10199C3.4748 2.10199 0 5.57679 0 9.86318C0 14.1496 3.4748 17.6244 7.76119 17.6244C12.0476 17.6244 15.5224 14.1496 15.5224 9.86318Z" fill="url(#paint0_linear)"/>
</g>
<defs>
<linearGradient id="paint0_linear" x1="5.14505e-10" y1="7.51866" x2="14.6331" y2="12.7736" gradientUnits="userSpaceOnUse">
<stop stop-color="#BA9462"/>
<stop offset="1" stop-color="#C9A15D"/>
</linearGradient>
<clipPath id="clip0">
<rect width="195" height="63.3831" fill="white"/>
</clipPath>
</defs>
</svg>