<svg width="90" height="90" viewBox="0 0 90 90" fill="none" xmlns="http://www.w3.org/2000/svg">
<rect width="90" height="90" rx="45" fill="white"/>
<rect x="1" y="1" width="88" height="88" rx="44" stroke="#8995AF" stroke-opacity="0.2" stroke-width="2"/>
<path d="M37.282 45.1778C38.061 44.397 38.061 43.127 37.282 42.3462L37.1985 42.2625L50.5473 28.8822C52.0642 27.3617 52.8995 25.3399 52.8995 23.1895C52.8995 22.3012 52.3707 21.5076 51.5518 21.1677C50.733 20.8278 49.7992 21.0139 49.1726 21.642L44.291 26.5355C44.2906 26.5355 44.2906 26.5358 44.2902 26.5358L32.8996 37.9534L32.3155 37.3679C31.9383 36.9898 31.4369 36.7817 30.903 36.7817C30.3694 36.7817 29.8677 36.9898 29.4905 37.3679L22.3219 44.553C20.5594 46.3202 20.5594 49.1955 22.3219 50.9626L23.7194 52.363C24.5734 53.219 25.7087 53.6907 26.9164 53.6907C28.1242 53.6907 29.2598 53.2194 30.1138 52.363L37.282 45.1778ZM26.9164 51.8157C26.2085 51.8157 25.5428 51.5392 25.0422 51.0371L23.6451 49.6367C22.6112 48.6008 22.6112 46.9152 23.6451 45.8789L30.8133 38.6938C30.844 38.6629 30.8792 38.6563 30.903 38.6563C30.9272 38.6563 30.962 38.6629 30.9927 38.6938L35.9593 43.6717C36.0087 43.7216 36.0087 43.802 35.9593 43.8519L28.7911 51.0371C28.2901 51.5392 27.6247 51.8157 26.9164 51.8157ZM50.8359 22.8999C50.908 22.93 51.0289 23.0075 51.0289 23.1895C51.0289 24.8392 50.388 26.3901 49.2242 27.5563L45.8869 30.9018V27.5871L50.4953 22.9678C50.6239 22.8394 50.7638 22.8702 50.8359 22.8999ZM44.0163 32.7769L35.8758 40.9366L34.2223 39.2793L44.0163 29.4622V32.7769Z" fill="#C9A15D"/>
<path d="M51.4196 61.005L45.0405 67.3987C44.8582 67.5815 44.767 67.8212 44.7666 68.0605C44.7662 68.301 44.8574 68.5414 45.0405 68.7249C45.2233 68.9077 45.4624 68.9995 45.7019 68.9995C45.941 68.9995 46.1805 68.9077 46.3633 68.7249L52.7423 62.3308C53.1074 61.9645 53.1074 61.3709 52.7423 61.005C52.3772 60.639 51.785 60.639 51.4196 61.005Z" fill="#C9A15D"/>
<path d="M53.5796 58.84C53.4056 59.0144 53.3057 59.2563 53.3057 59.5026C53.3057 59.7493 53.4056 59.9912 53.5796 60.1655L53.58 60.1659C53.7539 60.3402 53.9952 60.4405 54.2417 60.4405C54.4878 60.4405 54.7291 60.3402 54.9031 60.1655C55.077 59.9912 55.177 59.7493 55.177 59.5026C55.177 59.2563 55.077 59.0144 54.9031 58.84C54.7291 58.6656 54.4878 58.5654 54.2417 58.5654C53.9949 58.5651 53.7546 58.6656 53.5796 58.84Z" fill="#C9A15D"/>
<path d="M30.1152 67.3794C30.1152 67.3794 30.1152 67.3794 30.1149 67.3791C29.9413 67.2047 29.7 67.1045 29.4539 67.1045C29.2078 67.1045 28.9664 67.2047 28.7925 67.3791C28.6185 67.5534 28.5186 67.7953 28.5186 68.042C28.5186 68.2894 28.6185 68.5306 28.7925 68.7049C28.9664 68.88 29.2078 68.9795 29.4539 68.9795C29.7 68.9795 29.9413 68.88 30.1149 68.7049C30.2888 68.531 30.3888 68.2905 30.3892 68.0435C30.3892 68.0431 30.3892 68.0424 30.3892 68.042C30.3892 67.7953 30.2892 67.5538 30.1152 67.3794Z" fill="#C9A15D"/>
<path d="M69.0002 40.9277C69.0002 39.7596 68.5465 38.6617 67.7229 37.8361C66.0222 36.1314 63.2551 36.1314 61.5548 37.8361L61.1867 38.2047C59.3132 38.0667 57.3924 38.712 55.9631 40.1447L31.2357 64.9304C30.8706 65.2964 30.8706 65.89 31.2357 66.2563C31.4185 66.4395 31.6576 66.5309 31.8971 66.5309C32.1366 66.5309 32.3758 66.4391 32.5585 66.2563L57.2858 41.4706C57.7949 40.9603 58.3977 40.5789 59.0554 40.3414L56.7688 42.6335C56.2015 43.2017 55.8895 43.9571 55.8895 44.761C55.8895 45.5649 56.2019 46.3204 56.7688 46.8886L58.6914 48.8161C59.2586 49.3844 60.0123 49.6975 60.8139 49.6975C61.6159 49.6975 62.37 49.3844 62.9369 48.8161L65.2173 46.5304C64.9847 47.1757 64.6119 47.7814 64.0967 48.2978L55.7273 56.6874C55.3618 57.0533 55.3618 57.6469 55.7273 58.0132C56.0924 58.3792 56.6845 58.3792 57.05 58.0132L65.4194 49.6237C66.8491 48.191 67.4929 46.2657 67.3548 44.3877L67.7229 44.0188C68.5465 43.1933 69.0002 42.0953 69.0002 40.9277ZM60.8143 47.8225C60.5122 47.8225 60.228 47.7046 60.0141 47.4903L58.0915 45.5627C57.8776 45.3487 57.7601 45.0639 57.7601 44.761C57.7601 44.4582 57.8776 44.1734 58.0915 43.959L62.8775 39.162C63.3628 38.6753 64.0007 38.4319 64.6386 38.4319C65.2766 38.4319 65.9145 38.6753 66.4001 39.162C67.3713 40.1355 67.3713 41.7194 66.4001 42.6929L61.6141 47.4903C61.4006 47.7046 61.1164 47.8225 60.8143 47.8225Z" fill="#C9A15D"/>
</svg>
