<svg width="90" height="90" viewBox="0 0 90 90" fill="none" xmlns="http://www.w3.org/2000/svg">
<rect width="90" height="90" rx="45" fill="white"/>
<rect x="1" y="1" width="88" height="88" rx="44" stroke="#8995AF" stroke-opacity="0.2" stroke-width="2"/>
<path d="M63.1062 46.8978C63.0949 46.8378 63.0762 46.7787 63.0527 46.7225C63.0293 46.6662 63.0002 46.6109 62.9665 46.5603C62.9328 46.5087 62.8934 46.4609 62.8502 46.4178C62.8071 46.3746 62.7593 46.3353 62.7077 46.3015C62.6571 46.2678 62.6027 46.2387 62.5465 46.2153C62.4893 46.1918 62.4302 46.174 62.3702 46.1618C62.2493 46.1375 62.1246 46.1375 62.0046 46.1618C61.9446 46.174 61.8856 46.1918 61.8293 46.2153C61.7721 46.2387 61.7178 46.2678 61.6672 46.3015C61.6155 46.3353 61.5677 46.3746 61.5246 46.4178C61.4815 46.461 61.4421 46.5087 61.4083 46.5603C61.3737 46.6109 61.3455 46.6661 61.3221 46.7225C61.2987 46.7786 61.2799 46.8377 61.2687 46.8978C61.2565 46.9577 61.25 47.0196 61.25 47.0805C61.25 47.1414 61.2565 47.2034 61.2687 47.2642C61.2799 47.3234 61.2987 47.3825 61.3221 47.4396C61.3455 47.4959 61.3737 47.5503 61.4083 47.6009C61.4421 47.6525 61.4815 47.7003 61.5246 47.7434C61.5677 47.7875 61.6155 47.8259 61.6672 47.8606C61.7178 47.8943 61.7721 47.9234 61.8293 47.9468C61.8855 47.9703 61.9446 47.9881 62.0046 48.0003C62.0646 48.0125 62.1265 48.0181 62.1874 48.0181C62.2482 48.0181 62.3102 48.0125 62.3702 48.0003C62.4302 47.9881 62.4893 47.9703 62.5465 47.9468C62.6027 47.9234 62.6571 47.8943 62.7077 47.8606C62.7593 47.8259 62.8071 47.7875 62.8502 47.7434C62.8934 47.7003 62.9328 47.6525 62.9665 47.6009C63.0002 47.5503 63.0293 47.4959 63.0527 47.4396C63.0762 47.3825 63.0949 47.3234 63.1062 47.2642C63.1183 47.2033 63.1249 47.1414 63.1249 47.0805C63.1249 47.0196 63.1183 46.9578 63.1062 46.8978Z" fill="#C9A15D"/>
<path d="M61.9062 21H27.9688C25.229 21 23 23.2289 23 25.9688V46.7992C23 49.5391 25.229 51.768 27.9688 51.768H31.9932C31.5384 52.4429 31.2727 53.2552 31.2727 54.1285V68.0625C31.2727 68.5802 31.6924 69 32.2102 69H57.6648C58.1825 69 58.6023 68.5802 58.6023 68.0625V54.1285C58.6023 53.2552 58.3366 52.443 57.8819 51.768H61.9062C64.6461 51.768 66.875 49.5391 66.875 46.7992V25.9688C66.875 23.2289 64.6461 21 61.9062 21ZM37.1421 67.125V61.0298C37.1421 60.5121 36.7224 60.0923 36.2046 60.0923C35.6868 60.0923 35.2671 60.5121 35.2671 61.0298V67.125H33.1477V54.1285C33.1477 52.8269 34.207 51.768 35.509 51.768H38.7265L43.9342 60.805L40.4303 67.125H37.1421ZM42.6564 47.0612C40.2327 46.2307 38.5224 44.3627 38.0753 42.0605C38.0388 41.732 37.7835 39.1584 38.4795 37.2218L47.0892 34.1276C47.2392 34.8084 47.6249 35.5544 48.4307 36.282C49.3011 37.068 50.3991 37.5925 51.0552 37.9058C51.1442 37.9483 51.2449 37.9965 51.3282 38.0377C51.6805 38.9202 51.8647 39.7842 51.8764 40.6099V40.7769C51.8764 43.6891 50.0503 46.1047 47.111 47.0811C46.6914 47.2205 46.4263 47.634 46.4747 48.0735L46.7899 50.9333C46.8423 51.4084 47.2437 51.768 47.7217 51.768H49.0093L45.0134 58.9226L40.8904 51.7681H42.0358C42.5139 51.7681 42.9154 51.4083 42.9676 50.933L43.2843 48.0504C43.3322 47.6145 43.0714 47.2034 42.6564 47.0612ZM48.5616 49.8931L48.4182 48.5918C49.8692 47.9824 51.1071 47.0506 52.0281 45.8679C53.1555 44.4203 53.7515 42.6598 53.7515 40.7769V40.6031C53.7515 40.599 53.7515 40.5949 53.7514 40.5907C53.7361 39.436 53.4646 38.2418 52.9443 37.0415C52.7743 36.649 52.4507 36.4945 51.8635 36.2139C50.1468 35.3941 48.6035 34.4381 48.931 33.0071C49.0074 32.6731 48.8954 32.3239 48.639 32.0965C48.3827 31.8691 48.0224 31.8001 47.7 31.9157L37.4497 35.5994C37.2091 35.6859 37.0142 35.867 36.9103 36.1005C35.811 38.5703 36.1722 41.9374 36.2171 42.3131C36.2196 42.3342 36.2228 42.3552 36.2267 42.3761C36.7467 45.1304 38.6365 47.3974 41.3418 48.5622L41.1956 49.893H34.6824V37.1614C34.6824 31.5067 39.2829 26.9062 44.9375 26.9062C50.5921 26.9062 55.1926 31.5067 55.1926 37.1614V49.8931H48.5616ZM56.7273 67.125H54.1897V61.0298C54.1897 60.5121 53.7699 60.0923 53.2522 60.0923C52.7344 60.0923 52.3147 60.5121 52.3147 61.0298V67.125H42.5799L51.1571 51.768H54.3668C55.6684 51.768 56.7273 52.8269 56.7273 54.1285V67.125ZM65 46.7992C65 48.5051 63.6121 49.893 61.9062 49.893H57.0676V37.1614C57.0676 32.8508 54.8076 29.0582 51.4102 26.9062H61.25V43.5011C61.25 44.0188 61.6698 44.4386 62.1875 44.4386C62.7052 44.4386 63.125 44.0188 63.125 43.5011V26.25C63.125 25.578 62.5783 25.0312 61.9062 25.0312H27.9688C27.2967 25.0312 26.75 25.578 26.75 26.25V47.0806C26.75 47.5983 27.1697 48.0181 27.6875 48.0181C28.2053 48.0181 28.625 47.5983 28.625 47.0806V26.9062H38.4648C35.0674 29.0582 32.8074 32.8507 32.8074 37.1614V49.8931H27.9688C26.2629 49.8931 24.875 48.5052 24.875 46.7993V25.9688C24.875 24.2629 26.2629 22.875 27.9688 22.875H61.9062C63.6121 22.875 65 24.2629 65 25.9688V46.7992Z" fill="#C9A15D"/>
<path d="M43.4214 39.0617C43.1183 38.6419 42.5324 38.5472 42.1126 38.8504C41.6863 39.158 41.1136 39.158 40.6875 38.8504C40.2676 38.5472 39.6817 38.6418 39.3787 39.0617C39.0756 39.4815 39.1702 40.0676 39.59 40.3706C40.1313 40.7614 40.7657 40.9568 41.4 40.9568C42.0344 40.9568 42.6687 40.7614 43.2101 40.3706C43.6298 40.0676 43.7245 39.4815 43.4214 39.0617Z" fill="#C9A15D"/>
<path d="M50.6099 39.0617C50.307 38.642 49.721 38.5472 49.301 38.8504C48.8748 39.158 48.3022 39.158 47.876 38.8504C47.456 38.5472 46.87 38.6418 46.5671 39.0617C46.264 39.4815 46.3587 40.0676 46.7784 40.3706C47.3198 40.7614 47.9541 40.9569 48.5885 40.9569C49.223 40.9569 49.8573 40.7614 50.3986 40.3706C50.8184 40.0676 50.913 39.4815 50.6099 39.0617Z" fill="#C9A15D"/>
<path d="M46.9586 43.7024C46.6557 43.2825 46.0697 43.1879 45.6498 43.4909C45.2235 43.7984 44.6508 43.7984 44.2245 43.4909C43.8047 43.188 43.2187 43.2825 42.9157 43.7024C42.6127 44.1223 42.7073 44.7082 43.1272 45.0112C43.6685 45.4019 44.3029 45.5973 44.9372 45.5973C45.5716 45.5973 46.2059 45.4019 46.7471 45.0112C47.167 44.7082 47.2616 44.1221 46.9586 43.7024Z" fill="#C9A15D"/>
<path d="M54.6104 56.0234H50.9268C50.4091 56.0234 49.9893 56.4433 49.9893 56.9609C49.9893 57.4786 50.4091 57.8984 50.9268 57.8984H54.6104C55.1281 57.8984 55.5479 57.4786 55.5479 56.9609C55.5479 56.4433 55.1281 56.0234 54.6104 56.0234Z" fill="#C9A15D"/>
</svg>
