<svg width="158" height="30" viewBox="0 0 158 30" fill="none" xmlns="http://www.w3.org/2000/svg">
<path d="M25.7365 0V29.4796H18.8572V17.016H6.87924V29.4796H0V0H6.87924V12.3219H18.8572V0H25.7365Z" fill="#07101C"/>
<path d="M39.7668 8.17416C41.3585 8.17416 42.8085 8.4237 44.1169 8.92278C45.4253 9.42186 46.5449 10.1368 47.4756 11.0675C48.4198 11.9982 49.1482 13.1313 49.6608 14.4666C50.1869 15.7885 50.4499 17.279 50.4499 18.9381C50.4499 20.6107 50.1869 22.1215 49.6608 23.4704C49.1482 24.8057 48.4198 25.9455 47.4756 26.8897C46.5449 27.8205 45.4253 28.5421 44.1169 29.0547C42.8085 29.5538 41.3585 29.8033 39.7668 29.8033C38.1617 29.8033 36.6981 29.5538 35.3762 29.0547C34.0678 28.5421 32.9348 27.8205 31.9771 26.8897C31.0329 25.9455 30.2977 24.8057 29.7717 23.4704C29.2591 22.1215 29.0028 20.6107 29.0028 18.9381C29.0028 17.279 29.2591 15.7885 29.7717 14.4666C30.2977 13.1313 31.0329 11.9982 31.9771 11.0675C32.9348 10.1368 34.0678 9.42186 35.3762 8.92278C36.6981 8.4237 38.1617 8.17416 39.7668 8.17416ZM39.7668 25.1497C41.2101 25.1497 42.269 24.6439 42.9434 23.6322C43.6313 22.6071 43.9753 21.0559 43.9753 18.9786C43.9753 16.9014 43.6313 15.3569 42.9434 14.3452C42.269 13.3336 41.2101 12.8278 39.7668 12.8278C38.2831 12.8278 37.1972 13.3336 36.5093 14.3452C35.8214 15.3569 35.4774 16.9014 35.4774 18.9786C35.4774 21.0559 35.8214 22.6071 36.5093 23.6322C37.1972 24.6439 38.2831 25.1497 39.7668 25.1497Z" fill="#07101C"/>
<path d="M62.6324 25.352C63.4147 25.352 64.0352 25.143 64.4938 24.7248C64.9525 24.2932 65.1818 23.7132 65.1818 22.9848C65.1818 22.688 65.148 22.4047 65.0806 22.135C65.0266 21.8652 64.9052 21.6291 64.7164 21.4268C64.541 21.2245 64.2848 21.0694 63.9475 20.9615C63.6103 20.8401 63.1719 20.7794 62.6324 20.7794H59.557V25.352H62.6324ZM59.557 12.4231V17.0565H62.2075C62.9764 17.0565 63.6036 16.8272 64.0892 16.3685C64.5748 15.8964 64.8176 15.2962 64.8176 14.5678C64.8176 14.3115 64.7771 14.0552 64.6962 13.799C64.6152 13.5427 64.4736 13.3134 64.2713 13.111C64.0689 12.9087 63.7992 12.7468 63.462 12.6254C63.1247 12.4905 62.7066 12.4231 62.2075 12.4231H59.557ZM62.3896 8.49788C63.7385 8.49788 64.912 8.62603 65.9102 8.88231C66.9083 9.1386 67.7311 9.49605 68.3786 9.95467C69.0395 10.4133 69.5251 10.9596 69.8354 11.5935C70.1591 12.214 70.321 12.8952 70.321 13.6371C70.321 14.0957 70.2603 14.5678 70.1389 15.0534C70.031 15.5255 69.8354 15.9841 69.5521 16.4292C69.2688 16.8609 68.8777 17.2588 68.3786 17.623C67.893 17.9737 67.2658 18.257 66.4969 18.4728C67.1309 18.6212 67.7176 18.8302 68.2572 19.1C68.8102 19.3698 69.2823 19.7003 69.6735 20.0914C70.0782 20.4826 70.3884 20.9412 70.6042 21.4673C70.8335 21.9799 70.9482 22.5666 70.9482 23.2276C70.9482 24.3471 70.7121 25.3048 70.24 26.1007C69.7679 26.883 69.1407 27.5237 68.3584 28.0228C67.5895 28.5219 66.706 28.8928 65.7078 29.1356C64.7231 29.3649 63.7115 29.4796 62.6729 29.4796H53.6084V8.49788H62.3896Z" fill="#07101C"/>
<path d="M83.8291 8.17416C85.4207 8.17416 86.8708 8.4237 88.1792 8.92278C89.4876 9.42186 90.6071 10.1368 91.5379 11.0675C92.4821 11.9982 93.2105 13.1313 93.723 14.4666C94.2491 15.7885 94.5121 17.279 94.5121 18.9381C94.5121 20.6107 94.2491 22.1215 93.723 23.4704C93.2105 24.8057 92.4821 25.9455 91.5379 26.8897C90.6071 27.8205 89.4876 28.5421 88.1792 29.0547C86.8708 29.5538 85.4207 29.8033 83.8291 29.8033C82.2239 29.8033 80.7604 29.5538 79.4385 29.0547C78.1301 28.5421 76.997 27.8205 76.0393 26.8897C75.0951 25.9455 74.36 24.8057 73.8339 23.4704C73.3214 22.1215 73.0651 20.6107 73.0651 18.9381C73.0651 17.279 73.3214 15.7885 73.8339 14.4666C74.36 13.1313 75.0951 11.9982 76.0393 11.0675C76.997 10.1368 78.1301 9.42186 79.4385 8.92278C80.7604 8.4237 82.2239 8.17416 83.8291 8.17416ZM83.8291 25.1497C85.2723 25.1497 86.3312 24.6439 87.0056 23.6322C87.6936 22.6071 88.0375 21.0559 88.0375 18.9786C88.0375 16.9014 87.6936 15.3569 87.0056 14.3452C86.3312 13.3336 85.2723 12.8278 83.8291 12.8278C82.3453 12.8278 81.2595 13.3336 80.5715 14.3452C79.8836 15.3569 79.5396 16.9014 79.5396 18.9786C79.5396 21.0559 79.8836 22.6071 80.5715 23.6322C81.2595 24.6439 82.3453 25.1497 83.8291 25.1497Z" fill="#07101C"/>
<path d="M113.088 13.4752C112.899 13.7045 112.717 13.8866 112.542 14.0215C112.367 14.1564 112.117 14.2238 111.793 14.2238C111.483 14.2238 111.2 14.1497 110.944 14.0013C110.701 13.8529 110.424 13.691 110.114 13.5157C109.804 13.3268 109.44 13.1582 109.021 13.0099C108.603 12.8615 108.084 12.7873 107.464 12.7873C106.695 12.7873 106.027 12.9289 105.46 13.2122C104.907 13.4955 104.449 13.9001 104.085 14.4262C103.72 14.9522 103.451 15.5997 103.275 16.3685C103.1 17.1239 103.012 17.9804 103.012 18.9381C103.012 20.948 103.397 22.4924 104.166 23.5715C104.948 24.6506 106.02 25.1902 107.383 25.1902C108.111 25.1902 108.684 25.1025 109.102 24.9271C109.534 24.7383 109.898 24.536 110.195 24.3201C110.492 24.0908 110.761 23.8818 111.004 23.6929C111.261 23.5041 111.578 23.4097 111.955 23.4097C112.454 23.4097 112.832 23.5918 113.088 23.9559L114.909 26.2018C114.262 26.9437 113.581 27.5507 112.866 28.0228C112.151 28.4814 111.416 28.8456 110.66 29.1154C109.918 29.3717 109.17 29.547 108.414 29.6414C107.659 29.7493 106.924 29.8033 106.209 29.8033C104.928 29.8033 103.7 29.5605 102.527 29.0749C101.367 28.5893 100.341 27.8879 99.4512 26.9707C98.5744 26.04 97.873 24.9002 97.347 23.5513C96.8344 22.2024 96.5781 20.6647 96.5781 18.9381C96.5781 17.4274 96.8007 16.0178 97.2458 14.7094C97.7044 13.3875 98.3721 12.2477 99.2489 11.29C100.139 10.3189 101.232 9.55675 102.527 9.00371C103.835 8.45067 105.346 8.17416 107.059 8.17416C108.704 8.17416 110.148 8.43719 111.389 8.96325C112.63 9.48931 113.749 10.2582 114.747 11.2698L113.088 13.4752Z" fill="#07101C"/>
<path d="M135.864 12.9896H128.883V29.4796H122.611V12.9896H115.631V8.49788H135.864V12.9896Z" fill="#07101C"/>
<path d="M158 8.49788V29.4796H151.728V18.7965C151.728 18.4458 151.748 18.0681 151.788 17.6635C151.829 17.2453 151.883 16.8204 151.95 16.3888C151.627 17.1172 151.283 17.7309 150.918 18.23C150.891 18.257 150.777 18.4188 150.574 18.7156C150.386 19.0123 150.136 19.3968 149.826 19.8689C149.529 20.3275 149.185 20.8468 148.794 21.4268C148.416 22.0068 148.025 22.6003 147.62 23.2073C146.676 24.6236 145.617 26.222 144.444 28.0026C144.322 28.1779 144.181 28.36 144.019 28.5489C143.871 28.7242 143.702 28.8861 143.513 29.0344C143.324 29.1693 143.122 29.284 142.906 29.3784C142.69 29.4593 142.461 29.4998 142.218 29.4998H138.374V8.51812H144.646V19.2012C144.646 19.5384 144.626 19.9161 144.585 20.3342C144.545 20.7524 144.491 21.1773 144.424 21.6089C144.747 20.8805 145.091 20.2668 145.455 19.7677C145.469 19.7407 145.577 19.5789 145.779 19.2821C145.982 18.9854 146.231 18.6077 146.528 18.1491C146.838 17.677 147.182 17.1509 147.56 16.5709C147.951 15.9909 148.349 15.3974 148.753 14.7904C149.698 13.3741 150.757 11.7756 151.93 9.99513C152.051 9.81978 152.186 9.64443 152.335 9.46907C152.497 9.28023 152.672 9.11837 152.861 8.98348C153.05 8.8351 153.252 8.72045 153.468 8.63952C153.684 8.5451 153.913 8.49788 154.156 8.49788H158Z" fill="#07101C"/>
<rect x="66.748" y="16.5303" width="12.1398" height="4.85594" fill="#07101C"/>
<rect x="125.021" y="24.623" width="15.3771" height="4.85594" fill="#07101C"/>
</svg>
