<svg width="15" height="22" viewBox="0 0 15 22" fill="none" xmlns="http://www.w3.org/2000/svg">
  <path fill-rule="evenodd" clip-rule="evenodd" d="M1.89069 2.03795L3.99332 1.09369L6.42839 5.96922e-05C6.42839 5.96922e-05 6.41685 0.0178759 6.3964 0.0532563L7.36608 4.8357L5.65532 5.46292C5.82656 6.76126 6.22662 8.27835 7.00002 10.0004C7.93971 12.0927 9.07073 13.6865 10.169 14.8845L11.5468 14.1446L14.4991 18.0754L14.4495 18.0977C14.5345 18.134 14.5801 18.1508 14.5801 18.1508L10.0425 20.1887C10.0425 20.1887 6.79315 18.0127 3.90607 11.5843C1.02503 5.16942 1.88709 2.05105 1.89071 2.03804L1.89069 2.03795Z" fill="#8995AF"/>
</svg>
