<svg width="14" height="14" viewBox="0 0 14 14" fill="none" xmlns="http://www.w3.org/2000/svg">
  <path d="M5.05518 4.425C5.16851 4.325 5.29184 4.23 5.42518 4.14C5.56184 4.05 5.70851 3.97167 5.86518 3.905C6.02184 3.83834 6.19184 3.78667 6.37518 3.75C6.55851 3.71 6.75684 3.69 6.97018 3.69C7.26018 3.69 7.52351 3.73 7.76018 3.81C8.00018 3.89 8.20518 4.005 8.37518 4.155C8.54518 4.30167 8.67684 4.48 8.77018 4.69C8.86351 4.9 8.91018 5.135 8.91018 5.395C8.91018 5.64834 8.87351 5.86834 8.80018 6.055C8.72684 6.23834 8.63518 6.39834 8.52518 6.535C8.41518 6.67167 8.29351 6.79 8.16018 6.89C8.03018 6.99 7.90684 7.085 7.79018 7.175C7.67351 7.26167 7.57184 7.34834 7.48518 7.435C7.40184 7.51834 7.35184 7.61334 7.33518 7.72L7.22018 8.45H6.37518L6.29018 7.635C6.27018 7.47834 6.29184 7.34167 6.35518 7.225C6.42184 7.105 6.50851 6.99667 6.61518 6.9C6.72518 6.8 6.84684 6.705 6.98018 6.615C7.11351 6.52167 7.23851 6.42167 7.35518 6.315C7.47184 6.205 7.56851 6.08334 7.64518 5.95C7.72518 5.81334 7.76518 5.65167 7.76518 5.465C7.76518 5.345 7.74184 5.23834 7.69518 5.145C7.65184 5.04834 7.59018 4.96667 7.51018 4.9C7.43018 4.83 7.33351 4.77667 7.22018 4.74C7.11018 4.70334 6.99018 4.685 6.86018 4.685C6.67018 4.685 6.50851 4.70667 6.37518 4.75C6.24518 4.79 6.13351 4.83667 6.04018 4.89C5.95018 4.94 5.87351 4.98667 5.81018 5.03C5.74684 5.07 5.69018 5.09 5.64018 5.09C5.52018 5.09 5.43351 5.04 5.38018 4.94L5.05518 4.425ZM6.00018 10.32C6.00018 10.2167 6.01851 10.1183 6.05518 10.025C6.09518 9.93167 6.14851 9.85167 6.21518 9.785C6.28184 9.71834 6.36184 9.665 6.45518 9.625C6.54851 9.585 6.64851 9.565 6.75518 9.565C6.86184 9.565 6.96018 9.585 7.05018 9.625C7.14351 9.665 7.22351 9.71834 7.29018 9.785C7.36018 9.85167 7.41518 9.93167 7.45518 10.025C7.49518 10.1183 7.51518 10.2167 7.51518 10.32C7.51518 10.4267 7.49518 10.5267 7.45518 10.62C7.41518 10.71 7.36018 10.7883 7.29018 10.855C7.22351 10.9217 7.14351 10.9733 7.05018 11.01C6.96018 11.05 6.86184 11.07 6.75518 11.07C6.64851 11.07 6.54851 11.05 6.45518 11.01C6.36184 10.9733 6.28184 10.9217 6.21518 10.855C6.14851 10.7883 6.09518 10.71 6.05518 10.62C6.01851 10.5267 6.00018 10.4267 6.00018 10.32Z" fill="#8995AF" fill-opacity="0.5"/>
  <rect x="0.5" y="0.5" width="13" height="13" rx="6.5" stroke="#8995AF" stroke-opacity="0.5"/>
</svg>
