<svg width="8" height="10" viewBox="0 0 8 10" fill="none" xmlns="http://www.w3.org/2000/svg">
  <path fill-rule="evenodd" clip-rule="evenodd" d="M4.88795 4.6865C4.61495 4.78183 4.29862 4.8295 3.93895 4.8295H2.44395V0.9945H3.93895C4.68429 0.9945 5.23895 1.16133 5.60295 1.495C5.97129 1.82867 6.15545 2.29233 6.15545 2.886C6.15545 3.172 6.10779 3.43417 6.01245 3.6725C5.91712 3.91083 5.77412 4.11667 5.58345 4.29C5.39712 4.459 5.16529 4.59117 4.88795 4.6865ZM5.47295 0.208C5.03962 0.0693335 4.52829 0 3.93895 0H1.18945V6.31451H0V7.31451H1.18945V9.3145H2.44395V7.31451H7V6.31451H2.44395V5.8305H3.93895C4.50229 5.8305 4.99845 5.759 5.42745 5.616C5.86079 5.46867 6.22262 5.265 6.51295 5.005C6.80762 4.745 7.03079 4.43517 7.18245 4.0755C7.33412 3.71583 7.40995 3.31933 7.40995 2.886C7.40995 2.44833 7.33845 2.05183 7.19545 1.6965C7.05679 1.34117 6.84445 1.03783 6.55845 0.7865C6.27245 0.535167 5.91062 0.342333 5.47295 0.208Z" fill="#8995AF"/>
</svg>
