<svg width="24" height="24" viewBox="0 0 24 24" fill="none" xmlns="http://www.w3.org/2000/svg">
<path fill-rule="evenodd" clip-rule="evenodd" d="M13.6874 14.9115C12.6759 15.6691 11.4198 16.1177 10.0589 16.1177C6.71265 16.1177 4 13.4051 4 10.0589C4 6.71265 6.71265 4 10.0589 4C13.4051 4 16.1177 6.71265 16.1177 10.0589C16.1177 11.4198 15.669 12.676 14.9115 13.6875L19.9999 18.7759L18.7758 20L13.6874 14.9115ZM14.3867 10.059C14.3867 12.4491 12.4491 14.3867 10.0589 14.3867C7.66877 14.3867 5.73116 12.4491 5.73116 10.059C5.73116 7.66881 7.66877 5.7312 10.0589 5.7312C12.4491 5.7312 14.3867 7.66881 14.3867 10.059Z" fill="#07101C"/>
</svg>
