<svg width="90" height="90" viewBox="0 0 90 90" fill="none" xmlns="http://www.w3.org/2000/svg">
<rect width="90" height="90" rx="45" fill="white"/>
<rect x="1" y="1" width="88" height="88" rx="44" stroke="#8995AF" stroke-opacity="0.2" stroke-width="2"/>
<path d="M44.9995 31.3428C37.3703 31.3428 31.1855 37.5276 31.1855 45.1568C31.1855 52.7861 37.3704 58.9708 44.9995 58.9708C52.6286 58.9708 58.8135 52.786 58.8135 45.1568C58.8135 37.5276 52.6287 31.3428 44.9995 31.3428ZM44.9995 55.8312C39.1041 55.8312 34.3251 51.0521 34.3251 45.1568C34.3251 39.2615 39.1041 34.4824 44.9995 34.4824C50.8949 34.4824 55.6739 39.2615 55.6739 45.1568C55.6738 51.0521 50.8949 55.8312 44.9995 55.8312Z" fill="#C9A15D"/>
<path d="M46.2557 28.535C46.2557 29.2285 45.6936 29.7907 44.9999 29.7907C44.3064 29.7907 43.7441 29.2285 43.7441 28.535V22.2558C43.744 21.5622 44.3064 21 44.9999 21C45.6936 21 46.2557 21.5622 46.2557 22.2558V28.535Z" fill="#C9A15D"/>
<path d="M46.2557 61.465C46.2557 60.7713 45.6936 60.209 44.9999 60.209C44.3064 60.209 43.7441 60.7712 43.7441 61.465V67.7439C43.7441 68.4376 44.3064 68.9997 44.9999 68.9997C45.6936 68.9997 46.2557 68.4376 46.2557 67.7439V61.465Z" fill="#C9A15D"/>
<path d="M61.465 43.9014C60.7713 43.9014 60.209 44.4636 60.209 45.1571C60.209 45.8507 60.7712 46.4129 61.465 46.4129H67.7439C68.4376 46.4129 68.9997 45.8507 68.9997 45.1571C68.9997 44.4635 68.4376 43.9014 67.7439 43.9014H61.465Z" fill="#C9A15D"/>
<path d="M22.2558 43.7441C21.5622 43.7441 21 44.3065 21 45C21 45.6937 21.5622 46.2558 22.2558 46.2558H28.5349C29.2284 46.2558 29.7906 45.6937 29.7906 45C29.7906 44.3065 29.2284 43.7442 28.5349 43.7442H22.2558V43.7441Z" fill="#C9A15D"/>
<path d="M28.8899 28.3697C28.3995 27.8794 27.6045 27.8794 27.1139 28.3697C26.6235 28.86 26.6235 29.6552 27.1139 30.1458L31.5538 34.5857C32.0444 35.0761 32.8394 35.0761 33.3298 34.5857C33.8204 34.0951 33.8204 33.3001 33.3298 32.8097L28.8899 28.3697Z" fill="#C9A15D"/>
<path d="M61.1106 28.3697C61.6012 27.8794 62.3962 27.8794 62.8865 28.3697C63.3772 28.86 63.3772 29.6552 62.8865 30.1458L58.4467 34.5857C57.9561 35.0761 57.1611 35.0761 56.6707 34.5857C56.1801 34.0951 56.1801 33.3001 56.6707 32.8097L61.1106 28.3697Z" fill="#C9A15D"/>
<path d="M28.8899 61.6304C28.3995 62.121 27.6045 62.121 27.1139 61.6304C26.6235 61.1401 26.6235 60.345 27.1139 59.8547L31.5538 55.4147C32.0444 54.9243 32.8394 54.9243 33.3298 55.4147C33.8204 55.9051 33.8204 56.7003 33.3298 57.1907L28.8899 61.6304Z" fill="#C9A15D"/>
<path d="M61.1106 61.6304C61.6012 62.121 62.3962 62.121 62.8865 61.6304C63.3772 61.1401 63.3772 60.345 62.8865 59.8547L58.4467 55.4147C57.9561 54.9243 57.1611 54.9243 56.6707 55.4147C56.1801 55.9051 56.1801 56.7003 56.6707 57.1907L61.1106 61.6304Z" fill="#C9A15D"/>
</svg>
