<svg width="90" height="90" viewBox="0 0 90 90" fill="none" xmlns="http://www.w3.org/2000/svg">
<rect width="90" height="90" rx="45" fill="white"/>
<rect x="1" y="1" width="88" height="88" rx="44" stroke="#8995AF" stroke-opacity="0.2" stroke-width="2"/>
<path d="M68.1995 58.9994H67.3107C69.5205 56.8489 69.5686 53.3142 67.4181 51.1044C67.0769 50.7538 66.6911 50.4496 66.2707 50.1995C67.9607 49.1903 68.9967 47.368 68.9995 45.3996C68.9955 42.3085 66.4906 39.8036 63.3995 39.7996H56.1996V34.1997C56.1994 33.7579 55.8411 33.3998 55.3993 33.4C55.3587 33.4 55.3181 33.4031 55.278 33.4093L45.7997 34.8669V34.1197C47.6608 33.737 48.9973 32.0998 48.9997 30.1997C48.9997 26.7086 45.7061 23.3742 45.5653 23.2342C45.2529 22.9219 44.7465 22.9219 44.4341 23.2342C44.2933 23.3742 40.9998 26.7086 40.9998 30.1997C41.0022 32.0998 42.3387 33.737 44.1997 34.1197V35.1141L34.4782 36.6101C34.0884 36.6701 33.8004 37.0052 33.7999 37.3997V46.3124C33.2156 45.6822 32.5417 45.1414 31.7999 44.7076C31.5524 44.5647 31.2474 44.5647 30.9999 44.7076C28.6375 46.0803 27.0427 48.4683 26.6799 51.1763C26.127 51.0629 25.5643 51.0037 25 50.9995C24.6469 51.0011 24.2943 51.024 23.944 51.0683C23.6602 51.1025 23.4163 51.2855 23.304 51.5483C21.6738 55.3723 22.9443 59.8153 26.3495 62.1994H21V63.7994H22.9056L24.284 66.5569C24.4195 66.8281 24.6968 66.9994 25 66.9993H55.3996C55.8414 66.9993 56.1996 66.6411 56.1996 66.1993V63.7994H61.3051L62.6835 66.5569C62.819 66.8281 63.0963 66.9994 63.3995 66.9993H66.5995C67.0413 66.9993 67.3995 66.6411 67.3995 66.1993V63.7994H68.1995C68.6413 63.7994 68.9995 63.4412 68.9995 62.9994V59.7994C68.9995 59.3576 68.6413 58.9994 68.1995 58.9994ZM67.3995 54.9995C67.3969 57.2074 65.6075 58.9968 63.3995 58.9994H48.9997C46.7906 58.9994 44.9997 57.2085 44.9997 54.9995C44.9997 52.7904 46.7906 50.9995 48.9997 50.9995H59.3996C60.7251 50.9995 61.7995 52.074 61.7995 53.3995C61.7995 54.725 60.7251 55.7995 59.3996 55.7995H51.3997C50.9579 55.7995 50.5997 55.4413 50.5997 54.9995C50.5997 54.5577 50.9579 54.1995 51.3997 54.1995H56.9996V52.5995H51.3997C50.0742 52.5995 48.9997 53.674 48.9997 54.9995C48.9997 56.325 50.0742 57.3994 51.3997 57.3994H59.3996C61.6075 57.3968 63.3969 55.6075 63.3995 53.3995C63.3966 52.5311 63.1081 51.6878 62.5787 50.9995H63.3995C65.6075 51.0021 67.3969 52.7915 67.3995 54.9995ZM60.9996 41.3996C62.325 41.3996 63.3995 42.4741 63.3995 43.7996C63.3995 45.1251 62.325 46.1996 60.9996 46.1996H52.9996C52.5578 46.1996 52.1997 45.8414 52.1997 45.3996C52.1997 44.9578 52.5578 44.5996 52.9996 44.5996H58.5996V42.9996H52.9996C51.6742 42.9996 50.5997 44.0741 50.5997 45.3996C50.5997 46.7251 51.6742 47.7995 52.9996 47.7995H60.9996C63.2075 47.7969 64.9969 46.0076 64.9995 43.7996C64.9987 42.9744 64.7403 42.1701 64.2603 41.4988C66.4147 41.9876 67.765 44.1303 67.2762 46.2847C66.8649 48.0977 65.2586 49.3883 63.3995 49.3995H59.3996H52.1997C49.9906 49.3995 48.1997 47.6087 48.1997 45.3996C48.1997 43.1905 49.9906 41.3996 52.1997 41.3996H60.9996ZM42.5998 30.1997C42.5998 28.1542 44.1397 26.027 44.9997 24.9998C45.8605 26.0262 47.3997 28.1494 47.3997 30.1997C47.3955 31.2131 46.7552 32.1147 45.7997 32.4525V30.9997H44.1997V32.4525C43.2443 32.1147 42.604 31.2131 42.5998 30.1997ZM31.3999 46.342C33.1872 47.5448 34.3444 49.4827 34.5558 51.6267C33.3627 52.1032 32.2881 52.8347 31.4071 53.7699C30.5197 52.8383 29.44 52.1113 28.2431 51.6395C28.4508 49.4906 29.6088 47.5473 31.3999 46.342ZM35.4128 53.0065C36.1798 52.7371 36.9868 52.5995 37.7998 52.5995C37.9254 52.5995 38.0566 52.6043 38.1934 52.6131C39.5114 56.3648 37.5385 60.4744 33.7869 61.7924C33.0199 62.0618 32.2128 62.1994 31.3999 62.1994C31.2743 62.1994 31.1431 62.1946 31.0063 62.1858C29.6883 58.4341 31.6612 54.3245 35.4128 53.0065ZM24.2 54.9995C24.199 54.1867 24.3364 53.3797 24.6064 52.6131C24.7432 52.6043 24.8744 52.5995 25 52.5995C27.0715 52.5933 29.0432 53.4889 30.4015 55.0531C29.0896 57.0694 28.6752 59.5405 29.2575 61.8746C26.2486 60.9368 24.1994 58.1511 24.2 54.9995ZM37.3054 65.3994H25.4943L24.6944 63.7994H38.1054L37.3054 65.3994ZM44.9997 65.3994H39.0942L39.8942 63.7994H41.7998V62.1994H36.4438C39.8529 59.8186 41.1266 55.3742 39.4958 51.5491C39.3835 51.2863 39.1396 51.1033 38.8558 51.0691C37.9455 50.9521 37.0221 50.9845 36.1222 51.1651C35.9974 50.2753 35.7365 49.41 35.3486 48.5995H35.3998V38.0861L54.5996 35.1325V39.7996H52.1997C49.1109 39.7955 46.6036 42.2962 46.5995 45.385C46.5975 46.9184 47.2251 48.3853 48.3357 49.4427C45.269 49.8045 43.0765 52.5839 43.4382 55.6506C43.5883 56.9229 44.1709 58.1052 45.0885 58.9994H44.1997C43.7579 58.9994 43.3997 59.3576 43.3997 59.7994V62.9994C43.3997 63.4412 43.7579 63.7994 44.1997 63.7994H44.9997V65.3994ZM48.5053 65.3994H46.5997V63.7994H49.3053L48.5053 65.3994ZM54.5996 65.3994H50.2941L51.0941 63.7994H54.5996V65.3994ZM65.7995 65.3994H63.8939L63.0939 63.7994H65.7995V65.3994ZM67.3995 62.1994H44.9997V60.5994H67.3995V62.1994Z" fill="#C9A15D"/>
<path d="M38.6 45.3997V40.5998C38.6 40.158 38.2418 39.7998 37.8 39.7998C37.3582 39.7998 37 40.158 37 40.5998V45.3997C37 45.8416 37.3582 46.1997 37.8 46.1997C38.2418 46.1997 38.6 45.8416 38.6 45.3997Z" fill="#C9A15D"/>
<path d="M37 48.5998C37 49.0416 37.3582 49.3998 37.8 49.3998C38.2418 49.3998 38.6 49.0416 38.6 48.5998C38.6 48.158 38.2418 47.7998 37.8 47.7998C37.3582 47.7998 37 48.158 37 48.5998Z" fill="#C9A15D"/>
</svg>
