<svg width="90" height="90" viewBox="0 0 90 90" fill="none" xmlns="http://www.w3.org/2000/svg">
<rect width="90" height="90" rx="45" fill="white"/>
<rect x="1" y="1" width="88" height="88" rx="44" stroke="#8995AF" stroke-opacity="0.2" stroke-width="2"/>
<path d="M58.5937 21C54.4581 21 51.0937 24.3644 51.0937 28.5V61.5937C51.0937 62.5758 50.2946 63.3749 49.3125 63.3749C48.3303 63.3749 47.5312 62.5758 47.5312 61.5937V37.0312C47.5312 32.8956 44.1668 29.5312 40.0312 29.5312H38.9062V29.0625C38.9062 28.5447 38.4865 28.125 37.9687 28.125H35.1562V25.6875C35.1562 23.1028 33.0534 21 30.4687 21H28.5937C26.009 21 23.9062 23.1028 23.9062 25.6875V46.9401C23.9062 49.1594 24.5548 51.3087 25.7812 53.1576V62.2499C25.7812 62.3902 25.8138 62.5319 25.875 62.6582L28.6875 68.4707C28.8439 68.7945 29.172 68.9999 29.5312 68.9999C29.8909 68.9999 30.2186 68.7945 30.375 68.4707C30.375 68.4707 33.1857 62.6623 33.1875 62.6582C33.2486 62.5319 33.2812 62.3898 33.2812 62.2499V53.158C34.5077 51.309 35.1562 49.1594 35.1562 46.9401V36.5625H37.9687C38.4865 36.5625 38.9062 36.1428 38.9062 35.625V35.1562H39.0937C40.6446 35.1562 41.9062 36.4178 41.9062 37.9687V61.5937C41.9062 65.6776 45.2288 68.9999 49.3125 68.9999C53.3964 68.9999 56.7187 65.6776 56.7187 61.5937V28.5C56.7187 27.4662 57.5599 26.625 58.5937 26.625C59.6275 26.625 60.4687 27.4662 60.4687 28.5V66.1424C60.4687 67.69 61.6596 68.9442 63.1797 68.9981C63.2142 68.9992 63.2486 68.9999 63.283 68.9999C64.0154 68.9999 64.705 68.722 65.2342 68.2115C65.7886 67.6764 66.0937 66.9576 66.0937 66.1874V28.5C66.0937 24.3644 62.7293 21 58.5937 21ZM28.5937 22.875H30.4687C31.6911 22.875 32.7337 23.6587 33.1208 24.75H25.942C26.3287 23.6587 27.3713 22.875 28.5937 22.875ZM31.4062 61.3124H27.6562V53.8124H31.4062V61.3124ZM29.5312 65.9098L28.214 63.1874H30.8485L29.5312 65.9098ZM33.2812 46.9401C33.2812 48.7163 32.7832 50.4389 31.8384 51.9374H27.2241C26.2793 50.4389 25.7812 48.7163 25.7812 46.9401V26.625H33.2812V46.9401ZM37.0312 34.6875H35.1562V30H37.0312V34.6875ZM64.2187 66.1874C64.2187 66.4441 64.1169 66.6836 63.9323 66.862C63.7474 67.0403 63.5035 67.1337 63.246 67.1242C62.7487 67.1066 62.3437 66.666 62.3437 66.1424V28.5C62.3437 26.4324 60.6613 24.75 58.5937 24.75C56.5261 24.75 54.8437 26.4324 54.8437 28.5V61.5937C54.8437 64.6435 52.3626 67.1249 49.3125 67.1249C46.2627 67.1249 43.7812 64.6435 43.7812 61.5937V37.9687C43.7812 35.384 41.6784 33.2812 39.0937 33.2812H38.9062V31.4062H40.0312C43.133 31.4062 45.6562 33.9294 45.6562 37.0312V61.5937C45.6562 63.6097 47.2965 65.2499 49.3125 65.2499C51.3284 65.2499 52.9687 63.6097 52.9687 61.5937V28.5C52.9687 25.3982 55.4922 22.875 58.5937 22.875C61.6955 22.875 64.2187 25.3982 64.2187 28.5V66.1874Z" fill="#C9A15D"/>
<path d="M28.5938 28.5938C28.0774 28.5938 27.6562 29.0145 27.6562 29.5312V32.3438C27.6562 32.8605 28.0774 33.2812 28.5938 33.2812C29.1105 33.2812 29.5312 32.8605 29.5312 32.3438V29.5312C29.5312 29.0145 29.1105 28.5938 28.5938 28.5938Z" fill="#C9A15D"/>
<path d="M28.5938 35.1562C28.0774 35.1562 27.6562 35.577 27.6562 36.0938C27.6562 36.6105 28.0774 37.0312 28.5938 37.0312C29.1105 37.0312 29.5312 36.6105 29.5312 36.0938C29.5312 35.577 29.1105 35.1562 28.5938 35.1562Z" fill="#C9A15D"/>
</svg>
