<svg width="1206" height="392" viewBox="0 0 1206 392" fill="none" xmlns="http://www.w3.org/2000/svg">
<path fill-rule="evenodd" clip-rule="evenodd" d="M1010 0C901.752 0 814 87.7522 814 196C814 304.248 901.752 392 1010 392C1118.25 392 1206 304.248 1206 196C1206 87.7522 1118.25 0 1010 0ZM1009.5 94C953.443 94 908 139.443 908 195.5C908 251.557 953.443 297 1009.5 297C1065.56 297 1111 251.557 1111 195.5C1111 139.443 1065.56 94 1009.5 94Z" fill="white"/>
<path d="M754 380V15.5H661.5V243.5L492 15.5H396V380H492V147.5L661.5 380H754Z" fill="white"/>
<path d="M320.711 14H221.711C221.711 14 230.687 237.5 214.687 271.5C198.687 305.5 165.687 304.5 157.187 304.5C148.687 304.5 122.211 301.5 106.711 271.5C91.2113 241.5 96.2113 151.5 96.2113 151.5H0.21133C0.21133 151.5 -0.264163 262 0.21133 271.5C0.686823 281 -2.28867 316 43.2113 356C88.7113 396 153.711 391.5 153.711 391.5C153.711 391.5 238.187 393.5 277.687 356C317.187 318.5 319.236 277 320.711 267.5C322.187 258 320.711 14 320.711 14Z" fill="white"/>
<rect y="13" width="96" height="96" rx="48" fill="url(#paint0_linear)"/>
<defs>
<linearGradient id="paint0_linear" x1="-6.71096e-07" y1="46.5" x2="90.5" y2="79" gradientUnits="userSpaceOnUse">
<stop stop-color="#BA9462"/>
<stop offset="1" stop-color="#C9A15D"/>
</linearGradient>
</defs>
</svg>
