<svg width="28" height="16" viewBox="0 0 28 16" fill="none" xmlns="http://www.w3.org/2000/svg">
<path d="M26.7827 12.4793C26.173 11.7559 25.4803 11.1076 24.8103 10.4805C24.572 10.2575 24.3257 10.027 24.0883 9.7977C23.4066 9.13881 23.3818 8.89127 23.9215 8.14285C24.2949 7.62697 24.6908 7.11041 25.0737 6.61083C25.421 6.15758 25.7801 5.68886 26.1243 5.21862L26.195 5.12193C26.8529 4.22205 27.5333 3.29155 27.8954 2.16905C27.9894 1.8729 28.0881 1.43709 27.8624 1.07268C27.6368 0.708564 27.1992 0.59748 26.8896 0.545594C26.7364 0.519919 26.5844 0.516414 26.4433 0.516414L22.1349 0.513366L22.0993 0.513062C21.4479 0.513062 21.0089 0.816525 20.7573 1.4409C20.5172 2.03747 20.2534 2.67274 19.9523 3.27677C19.3533 4.47958 18.5924 5.86493 17.4914 7.02035L17.4449 7.06949C17.3149 7.20763 17.1676 7.36404 17.0599 7.36404C17.0434 7.36404 17.0255 7.36092 17.0051 7.3546C16.7771 7.26675 16.624 6.721 16.6309 6.46714C16.631 6.46363 16.6311 6.46013 16.6311 6.45662L16.6281 1.534C16.6281 1.51694 16.6269 1.50002 16.6246 1.48311C16.515 0.682888 16.2723 0.18476 15.355 0.00716139C15.3306 0.00236144 15.3057 0 15.2809 0H10.8011C10.0712 0 9.66904 0.293254 9.291 0.732184C9.18896 0.849516 8.97655 1.09378 9.08183 1.39008C9.18865 1.6908 9.53539 1.75511 9.6483 1.77598C10.2088 1.88143 10.5247 2.22032 10.6142 2.81247C10.7704 3.84073 10.7896 4.93824 10.6746 6.26645C10.6425 6.63559 10.5791 6.9207 10.4746 7.16427C10.4503 7.22111 10.3642 7.40663 10.2764 7.40671C10.2485 7.40671 10.1678 7.39589 10.0209 7.29578C9.67335 7.06043 9.4191 6.72458 9.12268 6.30973C8.11428 4.90091 7.26796 3.34892 6.53502 1.56402C6.26319 0.906963 5.75552 0.539119 5.10489 0.5283C4.38997 0.517557 3.74181 0.512376 3.12362 0.512376C2.44817 0.512376 1.82196 0.518547 1.21048 0.531119C0.687015 0.540262 0.324935 0.695384 0.134415 0.992524C-0.0564133 1.28989 -0.0440048 1.68052 0.171332 2.15335C1.8951 5.94173 3.45803 8.69622 5.23914 11.0849C6.48716 12.7564 7.73895 13.9133 9.17817 14.7256C10.6945 15.5831 12.3937 16 14.3729 16C14.5973 16 14.8293 15.9946 15.0632 15.9838C16.2132 15.9284 16.6399 15.5169 16.6938 14.4099C16.7195 13.8442 16.7821 13.2509 17.0634 12.7449C17.241 12.4262 17.4065 12.4262 17.4609 12.4262C17.5657 12.4262 17.6957 12.4739 17.8353 12.5632C18.0856 12.7248 18.3002 12.9411 18.4762 13.1302C18.6418 13.3097 18.8056 13.4911 18.9695 13.6726C19.3233 14.0643 19.6891 14.4693 20.0712 14.8533C20.9075 15.6946 21.8289 16.0645 22.8872 15.9842H26.8372C26.8456 15.9842 26.8541 15.9839 26.8625 15.9834C27.2561 15.9577 27.597 15.7419 27.7978 15.3912C28.0465 14.9569 28.0415 14.4028 27.7844 13.9086C27.4927 13.3498 27.1142 12.8724 26.7827 12.4793Z" fill="black"/>
</svg>
