<svg width="18" height="11" viewBox="0 0 18 11" fill="none" xmlns="http://www.w3.org/2000/svg">
  <path d="M17.9046 9.27477C17.8828 9.2278 17.8625 9.18883 17.8436 9.15762C17.5313 8.59515 16.9345 7.90477 16.0536 7.08628L16.0349 7.06753L16.0256 7.05834L16.0162 7.04892H16.0068C15.6069 6.66779 15.3538 6.41152 15.2477 6.28032C15.0537 6.03038 15.0103 5.7774 15.1163 5.52107C15.1912 5.3274 15.4726 4.9184 15.9598 4.2935C16.216 3.96233 16.419 3.6969 16.5689 3.49693C17.6499 2.05984 18.1185 1.14152 17.9747 0.741609L17.9189 0.648156C17.8814 0.591893 17.7845 0.540423 17.6285 0.493483C17.4721 0.446641 17.2723 0.438895 17.0285 0.470111L14.3295 0.488756C14.2858 0.473262 14.2234 0.474707 14.142 0.493483C14.0608 0.512259 14.0201 0.52168 14.0201 0.52168L13.9732 0.54515L13.9359 0.573347C13.9046 0.591991 13.8703 0.624784 13.8327 0.671659C13.7954 0.718369 13.7642 0.773187 13.7392 0.835653C13.4454 1.59165 13.1113 2.29454 12.7363 2.94428C12.5051 3.33172 12.2928 3.66749 12.0989 3.95179C11.9053 4.23599 11.7428 4.44538 11.6117 4.57961C11.4804 4.71396 11.3619 4.82159 11.2555 4.9029C11.1493 4.98424 11.0682 5.01861 11.012 5.00604C10.9557 4.99347 10.9027 4.98099 10.8525 4.96852C10.7651 4.91226 10.6948 4.83574 10.6418 4.73891C10.5885 4.64207 10.5527 4.52019 10.5339 4.37336C10.5153 4.22644 10.5043 4.10006 10.5011 3.99381C10.4982 3.88768 10.4995 3.73757 10.5059 3.5439C10.5124 3.35014 10.5153 3.21903 10.5153 3.1503C10.5153 2.91284 10.5199 2.65513 10.5292 2.3771C10.5387 2.09907 10.5463 1.87877 10.5527 1.71649C10.5591 1.55403 10.562 1.38216 10.562 1.20097C10.562 1.01977 10.551 0.87767 10.5292 0.774533C10.5077 0.671527 10.4746 0.571541 10.4311 0.474608C10.3872 0.377774 10.3231 0.302867 10.2389 0.24969C10.1546 0.196578 10.0498 0.154431 9.92498 0.123115C9.59381 0.0481751 9.1721 0.00763594 8.65967 0.00133349C7.49762 -0.0111401 6.75094 0.0638983 6.4198 0.226351C6.2886 0.294988 6.16987 0.38877 6.06371 0.507401C5.95122 0.644906 5.93553 0.719945 6.01674 0.732287C6.39167 0.788451 6.6571 0.922805 6.81331 1.13522L6.86961 1.24777C6.9134 1.32898 6.95712 1.47276 7.00088 1.6789C7.04457 1.88504 7.07276 2.11308 7.08517 2.36288C7.11635 2.81906 7.11635 3.20954 7.08517 3.53438C7.05389 3.85935 7.02435 4.11234 6.99615 4.29353C6.96795 4.47473 6.9258 4.62156 6.86961 4.73398C6.81331 4.84644 6.77586 4.91518 6.75708 4.94013C6.73834 4.96507 6.72271 4.9808 6.71031 4.98697C6.6291 5.01809 6.54464 5.03394 6.45722 5.03394C6.36968 5.03394 6.26352 4.99015 6.13859 4.90264C6.01369 4.81513 5.88406 4.69492 5.74971 4.54182C5.61535 4.38869 5.46383 4.17471 5.29508 3.89983C5.12645 3.62495 4.9515 3.30008 4.7703 2.92521L4.62039 2.65335C4.52667 2.47846 4.39865 2.2238 4.2362 1.88961C4.07365 1.55528 3.92997 1.23189 3.80507 0.919489C3.75515 0.788286 3.68014 0.6884 3.58019 0.619663L3.53328 0.591466C3.5021 0.566519 3.45204 0.540029 3.38337 0.511799C3.3146 0.483602 3.24284 0.463382 3.1678 0.450941L0.599915 0.469586C0.337509 0.469586 0.159465 0.529032 0.0657162 0.647761L0.0281969 0.703925C0.00945368 0.735208 0 0.785168 0 0.853937C0 0.922673 0.0187432 1.00703 0.0562625 1.10692C0.431127 1.98795 0.838784 2.83763 1.27923 3.6561C1.71968 4.47457 2.10243 5.13386 2.42723 5.6334C2.7521 6.13329 3.08325 6.60509 3.42066 7.04856C3.75807 7.49219 3.98141 7.77649 4.09069 7.90139C4.20009 8.02652 4.28603 8.12007 4.3485 8.18254L4.58284 8.40743C4.73278 8.55741 4.95297 8.73703 5.24351 8.94629C5.53411 9.15568 5.85583 9.36182 6.20883 9.56504C6.5619 9.76794 6.97265 9.93351 7.44129 10.0616C7.90987 10.1897 8.36595 10.2412 8.80958 10.2164H9.88737C10.1059 10.1975 10.2716 10.1288 10.3841 10.0101L10.4214 9.96315C10.4465 9.92586 10.4699 9.86792 10.4916 9.78996C10.5135 9.71187 10.5244 9.62584 10.5244 9.53225C10.518 9.26364 10.5385 9.02155 10.5852 8.80602C10.6319 8.59056 10.6852 8.42811 10.7447 8.3187C10.8042 8.20939 10.8714 8.11715 10.9461 8.04238C11.0211 7.96744 11.0744 7.92204 11.1057 7.90641C11.1369 7.89069 11.1617 7.88002 11.1805 7.87362C11.3304 7.82366 11.5069 7.87205 11.7101 8.019C11.9132 8.16583 12.1037 8.34713 12.2819 8.56259C12.4599 8.77825 12.6739 9.02021 12.9238 9.28882C13.1738 9.55753 13.3924 9.75727 13.5798 9.88867L13.7671 10.0011C13.8923 10.0762 14.0547 10.1449 14.2547 10.2074C14.4543 10.2698 14.6292 10.2854 14.7794 10.2542L17.1785 10.2168C17.4158 10.2168 17.6004 10.1775 17.7314 10.0995C17.8626 10.0214 17.9406 9.93541 17.9657 9.84183C17.9908 9.74814 17.9922 9.64185 17.9705 9.52303C17.9483 9.40449 17.9264 9.32161 17.9046 9.27477Z" fill="#8995AF" fill-opacity="0.2"/>
</svg>
