<svg width="48" height="48" viewBox="0 0 48 48" fill="none" xmlns="http://www.w3.org/2000/svg">
<path fill-rule="evenodd" clip-rule="evenodd" d="M4 10.4286H14.1L17.4 5H30.6L33.9 10.4286H44H46V12.4286V41V43H44H4H2V41V12.4286V10.4286H4ZM15.809 11.4675L18.5248 7H29.4752L32.191 11.4675L32.7752 12.4286H33.9H44V41H4V12.4286H14.1H15.2248L15.809 11.4675ZM30.8 25.6286C30.8 29.2964 27.7803 32.3143 24 32.3143C20.2197 32.3143 17.2 29.2964 17.2 25.6286C17.2 21.9607 20.2197 18.9429 24 18.9429C27.7803 18.9429 30.8 21.9607 30.8 25.6286ZM32.8 25.6286C32.8 30.4256 28.8601 34.3143 24 34.3143C19.1399 34.3143 15.2 30.4256 15.2 25.6286C15.2 20.8316 19.1399 16.9429 24 16.9429C28.8601 16.9429 32.8 20.8316 32.8 25.6286Z" fill="#8995AF"/>
</svg>
