<svg width="44" height="38" viewBox="0 0 44 38" fill="none" xmlns="http://www.w3.org/2000/svg">
<path fill-rule="evenodd" clip-rule="evenodd" d="M2 5.42857H12.1L15.4 0H28.6L31.9 5.42857H42H44V7.42857V36V38H42H2H0V36V7.42857V5.42857H2ZM13.809 6.46747L16.5248 2H27.4752L30.191 6.46747L30.7752 7.42857H31.9H42V36H2V7.42857H12.1H13.2248L13.809 6.46747ZM28.8 20.6286C28.8 24.2964 25.7803 27.3143 22 27.3143C18.2197 27.3143 15.2 24.2964 15.2 20.6286C15.2 16.9607 18.2197 13.9429 22 13.9429C25.7803 13.9429 28.8 16.9607 28.8 20.6286ZM30.8 20.6286C30.8 25.4256 26.8601 29.3143 22 29.3143C17.1399 29.3143 13.2 25.4256 13.2 20.6286C13.2 15.8316 17.1399 11.9429 22 11.9429C26.8601 11.9429 30.8 15.8316 30.8 20.6286Z" fill="#8995AF"/>
</svg>
