<svg width="17" height="18" viewBox="0 0 17 18" fill="none" xmlns="http://www.w3.org/2000/svg">
  <path fill-rule="evenodd" clip-rule="evenodd" d="M14.1579 5.68034C15.7414 5.60255 17 4.36158 17 2.84211C17 1.27245 15.6569 0 14 0C12.3431 0 11 1.27245 11 2.84211C11 3.35457 11.1432 3.83536 11.3937 4.25053L5.61122 7.07342C5.0957 6.21247 4.11945 5.63159 3 5.63159C1.34315 5.63159 0 6.90405 0 8.4737C0 10.0433 1.34315 11.3158 3 11.3158C3.76208 11.3158 4.45778 11.0466 4.98695 10.6031L11.2002 14.1349C11.0709 14.4523 11 14.7973 11 15.1579C11 16.7275 12.3431 18 14 18C15.6569 18 17 16.7275 17 15.1579C17 13.6384 15.7414 12.3974 14.1579 12.3197V5.68034ZM5.96119 8.01537C5.98673 8.16457 6 8.31766 6 8.4737C6 8.96292 5.86953 9.42326 5.63975 9.82522L11.7376 13.2914C12.1095 12.8872 12.6001 12.5835 13.1579 12.4293V5.57071C12.7584 5.46025 12.3934 5.27317 12.0818 5.02741L5.96119 8.01537Z" fill="#8995AF" fill-opacity="0.2"/>
</svg>

