<svg width="100" height="100" viewBox="0 0 100 100" fill="none" xmlns="http://www.w3.org/2000/svg">
<path fill-rule="evenodd" clip-rule="evenodd" d="M88.0016 17.3418C95.482 26.0986 100 37.4714 100 49.9015C100 77.5701 77.6142 100 50 100C22.3858 100 0 77.5701 0 49.9015C0 37.4714 4.518 26.0986 11.9984 17.3418C14.8651 35.7867 30.7874 49.9015 50 49.9015C69.2126 49.9015 85.1349 35.7867 88.0016 17.3418Z" fill="white"/>
<path fill-rule="evenodd" clip-rule="evenodd" d="M88.0016 82.6582C95.482 73.9014 100 62.5286 100 50.0985C100 50.0821 100 50.0656 100 50.0492C100 50.0328 100 50.0164 100 50C100 22.3858 77.6142 0 50 0C22.3858 0 0 22.3858 0 50C0 50.0164 7.89852e-06 50.0328 2.36944e-05 50.0492C7.89934e-06 50.0656 0 50.0821 0 50.0985C0 62.5286 4.51801 73.9014 11.9984 82.6582C12.0055 82.6124 12.0127 82.5666 12.02 82.5209C21.1902 93.2205 34.8034 100 50 100C65.1966 100 78.8098 93.2205 87.98 82.5209C87.9873 82.5666 87.9945 82.6124 88.0016 82.6582ZM12.2465 81.2378C15.6898 63.4936 31.2837 50.0985 50 50.0985C68.7163 50.0985 84.3102 63.4936 87.7535 81.2378C78.7658 92.0881 65.1901 99 50 99C34.8099 99 21.2342 92.0881 12.2465 81.2378ZM67.3077 25.531C67.3077 34.8425 59.774 42.391 50.4808 42.391C41.1875 42.391 33.6538 34.8425 33.6538 25.531C33.6538 16.2194 41.1875 8.67089 50.4808 8.67089C59.774 8.67089 67.3077 16.2194 67.3077 25.531Z" fill="#8995AF" fill-opacity="0.1"/>
</svg>
